G04 #@! TF.GenerationSoftware,KiCad,Pcbnew,(6.0.2)*
G04 #@! TF.CreationDate,2022-03-19T10:13:49-07:00*
G04 #@! TF.ProjectId,ir-emit-v1,69722d65-6d69-4742-9d76-312e6b696361,rev?*
G04 #@! TF.SameCoordinates,Original*
G04 #@! TF.FileFunction,Copper,L1,Top*
G04 #@! TF.FilePolarity,Positive*
%FSLAX46Y46*%
G04 Gerber Fmt 4.6, Leading zero omitted, Abs format (unit mm)*
G04 Created by KiCad (PCBNEW (6.0.2)) date 2022-03-19 10:13:49*
%MOMM*%
%LPD*%
G01*
G04 APERTURE LIST*
G04 #@! TA.AperFunction,ComponentPad*
%ADD10R,1.700000X1.700000*%
G04 #@! TD*
G04 #@! TA.AperFunction,ComponentPad*
%ADD11O,1.600000X1.600000*%
G04 #@! TD*
G04 #@! TA.AperFunction,ComponentPad*
%ADD12R,1.600000X1.600000*%
G04 #@! TD*
G04 #@! TA.AperFunction,ComponentPad*
%ADD13C,2.000000*%
G04 #@! TD*
G04 #@! TA.AperFunction,ComponentPad*
%ADD14C,1.600000*%
G04 #@! TD*
G04 #@! TA.AperFunction,ComponentPad*
%ADD15R,2.000000X1.905000*%
G04 #@! TD*
G04 #@! TA.AperFunction,ComponentPad*
%ADD16O,2.000000X1.905000*%
G04 #@! TD*
G04 #@! TA.AperFunction,ComponentPad*
%ADD17R,1.800000X1.800000*%
G04 #@! TD*
G04 #@! TA.AperFunction,ComponentPad*
%ADD18C,1.800000*%
G04 #@! TD*
G04 APERTURE END LIST*
D10*
X103378000Y-40894000D03*
D11*
X121920000Y-66040000D03*
X121920000Y-63500000D03*
X121920000Y-60960000D03*
D12*
X106680000Y-38100000D03*
D11*
X121920000Y-58420000D03*
X106680000Y-40640000D03*
X121920000Y-55880000D03*
X106680000Y-43180000D03*
X121920000Y-53340000D03*
X106680000Y-45720000D03*
X121920000Y-50800000D03*
X106680000Y-48260000D03*
X121920000Y-48260000D03*
X106680000Y-50800000D03*
X121920000Y-45720000D03*
X106680000Y-53340000D03*
X121920000Y-43180000D03*
X106680000Y-55880000D03*
X121920000Y-40640000D03*
X106680000Y-58420000D03*
X121920000Y-38100000D03*
X106680000Y-60960000D03*
X106680000Y-63500000D03*
X106680000Y-66040000D03*
D13*
X118400000Y-70410000D03*
X118400000Y-76910000D03*
X122900000Y-70410000D03*
X122900000Y-76910000D03*
D14*
X125222000Y-56388000D03*
D11*
X125222000Y-46228000D03*
X117856000Y-54356000D03*
D14*
X117856000Y-64516000D03*
X114300000Y-64516000D03*
D11*
X114300000Y-54356000D03*
X110744000Y-54356000D03*
D14*
X110744000Y-64516000D03*
X103378000Y-56388000D03*
D11*
X103378000Y-46228000D03*
D15*
X107513000Y-71120000D03*
D16*
X107513000Y-73660000D03*
X107513000Y-76200000D03*
D17*
X125222000Y-38100000D03*
D18*
X125222000Y-40640000D03*
D17*
X119883000Y-81280000D03*
D18*
X122423000Y-81280000D03*
D17*
X112644000Y-83820000D03*
D18*
X115184000Y-83820000D03*
D17*
X105405000Y-81280000D03*
D18*
X107945000Y-81280000D03*
G04 #@! TA.AperFunction,Conductor*
G36*
X126434121Y-36088002D02*
G01*
X126480614Y-36141658D01*
X126492000Y-36194000D01*
X126492000Y-36614342D01*
X126471998Y-36682463D01*
X126418342Y-36728956D01*
X126348068Y-36739060D01*
X126321770Y-36732324D01*
X126239606Y-36701522D01*
X126224351Y-36697895D01*
X126173486Y-36692369D01*
X126166672Y-36692000D01*
X125494115Y-36692000D01*
X125478876Y-36696475D01*
X125477671Y-36697865D01*
X125476000Y-36705548D01*
X125476000Y-38228000D01*
X125455998Y-38296121D01*
X125402342Y-38342614D01*
X125350000Y-38354000D01*
X123832116Y-38354000D01*
X123816877Y-38358475D01*
X123815672Y-38359865D01*
X123814001Y-38367548D01*
X123814001Y-39044669D01*
X123814371Y-39051490D01*
X123819895Y-39102352D01*
X123823521Y-39117604D01*
X123868676Y-39238054D01*
X123877214Y-39253649D01*
X123953715Y-39355724D01*
X123966276Y-39368285D01*
X124068351Y-39444786D01*
X124083946Y-39453324D01*
X124143540Y-39475665D01*
X124200304Y-39518307D01*
X124225004Y-39584868D01*
X124209796Y-39654217D01*
X124190404Y-39680698D01*
X124123639Y-39750564D01*
X124120725Y-39754836D01*
X124120724Y-39754837D01*
X124105152Y-39777665D01*
X123993119Y-39941899D01*
X123895602Y-40151981D01*
X123833707Y-40375169D01*
X123809095Y-40605469D01*
X123809392Y-40610622D01*
X123809392Y-40610625D01*
X123822129Y-40831529D01*
X123822427Y-40836697D01*
X123823564Y-40841743D01*
X123823565Y-40841749D01*
X123839284Y-40911497D01*
X123873346Y-41062642D01*
X123875288Y-41067424D01*
X123875289Y-41067428D01*
X123949207Y-41249466D01*
X123960484Y-41277237D01*
X124081501Y-41474719D01*
X124233147Y-41649784D01*
X124382683Y-41773931D01*
X124404609Y-41792134D01*
X124411349Y-41797730D01*
X124611322Y-41914584D01*
X124827694Y-41997209D01*
X124832760Y-41998240D01*
X124832761Y-41998240D01*
X124885846Y-42009040D01*
X125054656Y-42043385D01*
X125185324Y-42048176D01*
X125280949Y-42051683D01*
X125280953Y-42051683D01*
X125286113Y-42051872D01*
X125291233Y-42051216D01*
X125291235Y-42051216D01*
X125377608Y-42040151D01*
X125515847Y-42022442D01*
X125520795Y-42020957D01*
X125520802Y-42020956D01*
X125732747Y-41957369D01*
X125737690Y-41955886D01*
X125818236Y-41916427D01*
X125941049Y-41856262D01*
X125941052Y-41856260D01*
X125945684Y-41853991D01*
X126134243Y-41719494D01*
X126277060Y-41577174D01*
X126339431Y-41543258D01*
X126410238Y-41548446D01*
X126467000Y-41591092D01*
X126491694Y-41657655D01*
X126492000Y-41666425D01*
X126492000Y-45360827D01*
X126471998Y-45428948D01*
X126418342Y-45475441D01*
X126348068Y-45485545D01*
X126283488Y-45456051D01*
X126262787Y-45433098D01*
X126231357Y-45388211D01*
X126231355Y-45388208D01*
X126228198Y-45383700D01*
X126066300Y-45221802D01*
X126061792Y-45218645D01*
X126061789Y-45218643D01*
X125983611Y-45163902D01*
X125878749Y-45090477D01*
X125873767Y-45088154D01*
X125873762Y-45088151D01*
X125676225Y-44996039D01*
X125676224Y-44996039D01*
X125671243Y-44993716D01*
X125665935Y-44992294D01*
X125665933Y-44992293D01*
X125455402Y-44935881D01*
X125455400Y-44935881D01*
X125450087Y-44934457D01*
X125222000Y-44914502D01*
X124993913Y-44934457D01*
X124988600Y-44935881D01*
X124988598Y-44935881D01*
X124778067Y-44992293D01*
X124778065Y-44992294D01*
X124772757Y-44993716D01*
X124767776Y-44996039D01*
X124767775Y-44996039D01*
X124570238Y-45088151D01*
X124570233Y-45088154D01*
X124565251Y-45090477D01*
X124460389Y-45163902D01*
X124382211Y-45218643D01*
X124382208Y-45218645D01*
X124377700Y-45221802D01*
X124215802Y-45383700D01*
X124212645Y-45388208D01*
X124212643Y-45388211D01*
X124184119Y-45428948D01*
X124084477Y-45571251D01*
X124082154Y-45576233D01*
X124082151Y-45576238D01*
X123990039Y-45773775D01*
X123987716Y-45778757D01*
X123928457Y-45999913D01*
X123908502Y-46228000D01*
X123928457Y-46456087D01*
X123929881Y-46461400D01*
X123929881Y-46461402D01*
X123939031Y-46495548D01*
X123987716Y-46677243D01*
X123990039Y-46682224D01*
X123990039Y-46682225D01*
X124082151Y-46879762D01*
X124082154Y-46879767D01*
X124084477Y-46884749D01*
X124157475Y-46989001D01*
X124206461Y-47058959D01*
X124215802Y-47072300D01*
X124377700Y-47234198D01*
X124382208Y-47237355D01*
X124382211Y-47237357D01*
X124460389Y-47292098D01*
X124565251Y-47365523D01*
X124570233Y-47367846D01*
X124570238Y-47367849D01*
X124766765Y-47459490D01*
X124772757Y-47462284D01*
X124778065Y-47463706D01*
X124778067Y-47463707D01*
X124988598Y-47520119D01*
X124988600Y-47520119D01*
X124993913Y-47521543D01*
X125222000Y-47541498D01*
X125450087Y-47521543D01*
X125455400Y-47520119D01*
X125455402Y-47520119D01*
X125665933Y-47463707D01*
X125665935Y-47463706D01*
X125671243Y-47462284D01*
X125677235Y-47459490D01*
X125873762Y-47367849D01*
X125873767Y-47367846D01*
X125878749Y-47365523D01*
X125983611Y-47292098D01*
X126061789Y-47237357D01*
X126061792Y-47237355D01*
X126066300Y-47234198D01*
X126228198Y-47072300D01*
X126237540Y-47058959D01*
X126262787Y-47022902D01*
X126318244Y-46978574D01*
X126388864Y-46971265D01*
X126452224Y-47003296D01*
X126488209Y-47064497D01*
X126492000Y-47095173D01*
X126492000Y-55520827D01*
X126471998Y-55588948D01*
X126418342Y-55635441D01*
X126348068Y-55645545D01*
X126283488Y-55616051D01*
X126262787Y-55593098D01*
X126231357Y-55548211D01*
X126231355Y-55548208D01*
X126228198Y-55543700D01*
X126066300Y-55381802D01*
X126061792Y-55378645D01*
X126061789Y-55378643D01*
X125983611Y-55323902D01*
X125878749Y-55250477D01*
X125873767Y-55248154D01*
X125873762Y-55248151D01*
X125676225Y-55156039D01*
X125676224Y-55156039D01*
X125671243Y-55153716D01*
X125665935Y-55152294D01*
X125665933Y-55152293D01*
X125455402Y-55095881D01*
X125455400Y-55095881D01*
X125450087Y-55094457D01*
X125222000Y-55074502D01*
X124993913Y-55094457D01*
X124988600Y-55095881D01*
X124988598Y-55095881D01*
X124778067Y-55152293D01*
X124778065Y-55152294D01*
X124772757Y-55153716D01*
X124767776Y-55156039D01*
X124767775Y-55156039D01*
X124570238Y-55248151D01*
X124570233Y-55248154D01*
X124565251Y-55250477D01*
X124460389Y-55323902D01*
X124382211Y-55378643D01*
X124382208Y-55378645D01*
X124377700Y-55381802D01*
X124215802Y-55543700D01*
X124084477Y-55731251D01*
X124082154Y-55736233D01*
X124082151Y-55736238D01*
X123990039Y-55933775D01*
X123987716Y-55938757D01*
X123928457Y-56159913D01*
X123908502Y-56388000D01*
X123928457Y-56616087D01*
X123987716Y-56837243D01*
X123990039Y-56842224D01*
X123990039Y-56842225D01*
X124082151Y-57039762D01*
X124082154Y-57039767D01*
X124084477Y-57044749D01*
X124087634Y-57049257D01*
X124206461Y-57218959D01*
X124215802Y-57232300D01*
X124377700Y-57394198D01*
X124382208Y-57397355D01*
X124382211Y-57397357D01*
X124460389Y-57452098D01*
X124565251Y-57525523D01*
X124570233Y-57527846D01*
X124570238Y-57527849D01*
X124767775Y-57619961D01*
X124772757Y-57622284D01*
X124778065Y-57623706D01*
X124778067Y-57623707D01*
X124988598Y-57680119D01*
X124988600Y-57680119D01*
X124993913Y-57681543D01*
X125222000Y-57701498D01*
X125450087Y-57681543D01*
X125455400Y-57680119D01*
X125455402Y-57680119D01*
X125665933Y-57623707D01*
X125665935Y-57623706D01*
X125671243Y-57622284D01*
X125676225Y-57619961D01*
X125873762Y-57527849D01*
X125873767Y-57527846D01*
X125878749Y-57525523D01*
X125983611Y-57452098D01*
X126061789Y-57397357D01*
X126061792Y-57397355D01*
X126066300Y-57394198D01*
X126228198Y-57232300D01*
X126237540Y-57218959D01*
X126262787Y-57182902D01*
X126318244Y-57138574D01*
X126388864Y-57131265D01*
X126452224Y-57163296D01*
X126488209Y-57224497D01*
X126492000Y-57255173D01*
X126492000Y-85726000D01*
X126471998Y-85794121D01*
X126418342Y-85840614D01*
X126366000Y-85852000D01*
X102234000Y-85852000D01*
X102165879Y-85831998D01*
X102119386Y-85778342D01*
X102108000Y-85726000D01*
X102108000Y-84768134D01*
X111235500Y-84768134D01*
X111242255Y-84830316D01*
X111293385Y-84966705D01*
X111380739Y-85083261D01*
X111497295Y-85170615D01*
X111633684Y-85221745D01*
X111695866Y-85228500D01*
X113592134Y-85228500D01*
X113654316Y-85221745D01*
X113790705Y-85170615D01*
X113907261Y-85083261D01*
X113994615Y-84966705D01*
X114019180Y-84901178D01*
X114061822Y-84844414D01*
X114128383Y-84819714D01*
X114197732Y-84834921D01*
X114217647Y-84848464D01*
X114282724Y-84902492D01*
X114373349Y-84977730D01*
X114573322Y-85094584D01*
X114789694Y-85177209D01*
X114794760Y-85178240D01*
X114794761Y-85178240D01*
X114847846Y-85189040D01*
X115016656Y-85223385D01*
X115146089Y-85228131D01*
X115242949Y-85231683D01*
X115242953Y-85231683D01*
X115248113Y-85231872D01*
X115253233Y-85231216D01*
X115253235Y-85231216D01*
X115327166Y-85221745D01*
X115477847Y-85202442D01*
X115482795Y-85200957D01*
X115482802Y-85200956D01*
X115694747Y-85137369D01*
X115699690Y-85135886D01*
X115780236Y-85096427D01*
X115903049Y-85036262D01*
X115903052Y-85036260D01*
X115907684Y-85033991D01*
X116096243Y-84899494D01*
X116260303Y-84736005D01*
X116395458Y-84547917D01*
X116498078Y-84340280D01*
X116565408Y-84118671D01*
X116595640Y-83889041D01*
X116597327Y-83820000D01*
X116591032Y-83743434D01*
X116578773Y-83594318D01*
X116578772Y-83594312D01*
X116578349Y-83589167D01*
X116521925Y-83364533D01*
X116429570Y-83152131D01*
X116303764Y-82957665D01*
X116147887Y-82786358D01*
X116143836Y-82783159D01*
X116143832Y-82783155D01*
X115970177Y-82646011D01*
X115970172Y-82646008D01*
X115966123Y-82642810D01*
X115961607Y-82640317D01*
X115961604Y-82640315D01*
X115767879Y-82533373D01*
X115767875Y-82533371D01*
X115763355Y-82530876D01*
X115758486Y-82529152D01*
X115758482Y-82529150D01*
X115549903Y-82455288D01*
X115549899Y-82455287D01*
X115545028Y-82453562D01*
X115539935Y-82452655D01*
X115539932Y-82452654D01*
X115322095Y-82413851D01*
X115322089Y-82413850D01*
X115317006Y-82412945D01*
X115244096Y-82412054D01*
X115090581Y-82410179D01*
X115090579Y-82410179D01*
X115085411Y-82410116D01*
X114856464Y-82445150D01*
X114636314Y-82517106D01*
X114631726Y-82519494D01*
X114631722Y-82519496D01*
X114435461Y-82621663D01*
X114430872Y-82624052D01*
X114426739Y-82627155D01*
X114426736Y-82627157D01*
X114345035Y-82688500D01*
X114245655Y-82763117D01*
X114228170Y-82781414D01*
X114166646Y-82816844D01*
X114095733Y-82813387D01*
X114037947Y-82772141D01*
X114019094Y-82738592D01*
X113997768Y-82681705D01*
X113997767Y-82681703D01*
X113994615Y-82673295D01*
X113907261Y-82556739D01*
X113790705Y-82469385D01*
X113654316Y-82418255D01*
X113592134Y-82411500D01*
X111695866Y-82411500D01*
X111633684Y-82418255D01*
X111497295Y-82469385D01*
X111380739Y-82556739D01*
X111293385Y-82673295D01*
X111242255Y-82809684D01*
X111235500Y-82871866D01*
X111235500Y-84768134D01*
X102108000Y-84768134D01*
X102108000Y-82228134D01*
X103996500Y-82228134D01*
X104003255Y-82290316D01*
X104054385Y-82426705D01*
X104141739Y-82543261D01*
X104258295Y-82630615D01*
X104394684Y-82681745D01*
X104456866Y-82688500D01*
X106353134Y-82688500D01*
X106415316Y-82681745D01*
X106551705Y-82630615D01*
X106668261Y-82543261D01*
X106755615Y-82426705D01*
X106780180Y-82361178D01*
X106822822Y-82304414D01*
X106889383Y-82279714D01*
X106958732Y-82294921D01*
X106978647Y-82308464D01*
X107121069Y-82426705D01*
X107134349Y-82437730D01*
X107334322Y-82554584D01*
X107550694Y-82637209D01*
X107555760Y-82638240D01*
X107555761Y-82638240D01*
X107593957Y-82646011D01*
X107777656Y-82683385D01*
X107907089Y-82688131D01*
X108003949Y-82691683D01*
X108003953Y-82691683D01*
X108009113Y-82691872D01*
X108014233Y-82691216D01*
X108014235Y-82691216D01*
X108088493Y-82681703D01*
X108238847Y-82662442D01*
X108243795Y-82660957D01*
X108243802Y-82660956D01*
X108455747Y-82597369D01*
X108460690Y-82595886D01*
X108525943Y-82563919D01*
X108664049Y-82496262D01*
X108664052Y-82496260D01*
X108668684Y-82493991D01*
X108857243Y-82359494D01*
X108989062Y-82228134D01*
X118474500Y-82228134D01*
X118481255Y-82290316D01*
X118532385Y-82426705D01*
X118619739Y-82543261D01*
X118736295Y-82630615D01*
X118872684Y-82681745D01*
X118934866Y-82688500D01*
X120831134Y-82688500D01*
X120893316Y-82681745D01*
X121029705Y-82630615D01*
X121146261Y-82543261D01*
X121233615Y-82426705D01*
X121258180Y-82361178D01*
X121300822Y-82304414D01*
X121367383Y-82279714D01*
X121436732Y-82294921D01*
X121456647Y-82308464D01*
X121599069Y-82426705D01*
X121612349Y-82437730D01*
X121812322Y-82554584D01*
X122028694Y-82637209D01*
X122033760Y-82638240D01*
X122033761Y-82638240D01*
X122071957Y-82646011D01*
X122255656Y-82683385D01*
X122385089Y-82688131D01*
X122481949Y-82691683D01*
X122481953Y-82691683D01*
X122487113Y-82691872D01*
X122492233Y-82691216D01*
X122492235Y-82691216D01*
X122566493Y-82681703D01*
X122716847Y-82662442D01*
X122721795Y-82660957D01*
X122721802Y-82660956D01*
X122933747Y-82597369D01*
X122938690Y-82595886D01*
X123003943Y-82563919D01*
X123142049Y-82496262D01*
X123142052Y-82496260D01*
X123146684Y-82493991D01*
X123335243Y-82359494D01*
X123499303Y-82196005D01*
X123634458Y-82007917D01*
X123737078Y-81800280D01*
X123804408Y-81578671D01*
X123834640Y-81349041D01*
X123836327Y-81280000D01*
X123830032Y-81203434D01*
X123817773Y-81054318D01*
X123817772Y-81054312D01*
X123817349Y-81049167D01*
X123760925Y-80824533D01*
X123668570Y-80612131D01*
X123542764Y-80417665D01*
X123386887Y-80246358D01*
X123382836Y-80243159D01*
X123382832Y-80243155D01*
X123209177Y-80106011D01*
X123209172Y-80106008D01*
X123205123Y-80102810D01*
X123200607Y-80100317D01*
X123200604Y-80100315D01*
X123006879Y-79993373D01*
X123006875Y-79993371D01*
X123002355Y-79990876D01*
X122997486Y-79989152D01*
X122997482Y-79989150D01*
X122788903Y-79915288D01*
X122788899Y-79915287D01*
X122784028Y-79913562D01*
X122778935Y-79912655D01*
X122778932Y-79912654D01*
X122561095Y-79873851D01*
X122561089Y-79873850D01*
X122556006Y-79872945D01*
X122483096Y-79872054D01*
X122329581Y-79870179D01*
X122329579Y-79870179D01*
X122324411Y-79870116D01*
X122095464Y-79905150D01*
X121875314Y-79977106D01*
X121870726Y-79979494D01*
X121870722Y-79979496D01*
X121674461Y-80081663D01*
X121669872Y-80084052D01*
X121665739Y-80087155D01*
X121665736Y-80087157D01*
X121593088Y-80141703D01*
X121484655Y-80223117D01*
X121467170Y-80241414D01*
X121405646Y-80276844D01*
X121334733Y-80273387D01*
X121276947Y-80232141D01*
X121258094Y-80198592D01*
X121236768Y-80141705D01*
X121236767Y-80141703D01*
X121233615Y-80133295D01*
X121146261Y-80016739D01*
X121029705Y-79929385D01*
X120893316Y-79878255D01*
X120831134Y-79871500D01*
X118934866Y-79871500D01*
X118872684Y-79878255D01*
X118736295Y-79929385D01*
X118619739Y-80016739D01*
X118532385Y-80133295D01*
X118481255Y-80269684D01*
X118474500Y-80331866D01*
X118474500Y-82228134D01*
X108989062Y-82228134D01*
X109021303Y-82196005D01*
X109156458Y-82007917D01*
X109259078Y-81800280D01*
X109326408Y-81578671D01*
X109356640Y-81349041D01*
X109358327Y-81280000D01*
X109352032Y-81203434D01*
X109339773Y-81054318D01*
X109339772Y-81054312D01*
X109339349Y-81049167D01*
X109282925Y-80824533D01*
X109190570Y-80612131D01*
X109064764Y-80417665D01*
X108908887Y-80246358D01*
X108904836Y-80243159D01*
X108904832Y-80243155D01*
X108731177Y-80106011D01*
X108731172Y-80106008D01*
X108727123Y-80102810D01*
X108722607Y-80100317D01*
X108722604Y-80100315D01*
X108528879Y-79993373D01*
X108528875Y-79993371D01*
X108524355Y-79990876D01*
X108519486Y-79989152D01*
X108519482Y-79989150D01*
X108310903Y-79915288D01*
X108310899Y-79915287D01*
X108306028Y-79913562D01*
X108300935Y-79912655D01*
X108300932Y-79912654D01*
X108083095Y-79873851D01*
X108083089Y-79873850D01*
X108078006Y-79872945D01*
X108005096Y-79872054D01*
X107851581Y-79870179D01*
X107851579Y-79870179D01*
X107846411Y-79870116D01*
X107617464Y-79905150D01*
X107397314Y-79977106D01*
X107392726Y-79979494D01*
X107392722Y-79979496D01*
X107196461Y-80081663D01*
X107191872Y-80084052D01*
X107187739Y-80087155D01*
X107187736Y-80087157D01*
X107115088Y-80141703D01*
X107006655Y-80223117D01*
X106989170Y-80241414D01*
X106927646Y-80276844D01*
X106856733Y-80273387D01*
X106798947Y-80232141D01*
X106780094Y-80198592D01*
X106758768Y-80141705D01*
X106758767Y-80141703D01*
X106755615Y-80133295D01*
X106668261Y-80016739D01*
X106551705Y-79929385D01*
X106415316Y-79878255D01*
X106353134Y-79871500D01*
X104456866Y-79871500D01*
X104394684Y-79878255D01*
X104258295Y-79929385D01*
X104141739Y-80016739D01*
X104054385Y-80133295D01*
X104003255Y-80269684D01*
X103996500Y-80331866D01*
X103996500Y-82228134D01*
X102108000Y-82228134D01*
X102108000Y-76472194D01*
X106029573Y-76472194D01*
X106039110Y-76534515D01*
X106041499Y-76544543D01*
X106112898Y-76762988D01*
X106116895Y-76772497D01*
X106223011Y-76976344D01*
X106228505Y-76985069D01*
X106366493Y-77168852D01*
X106373336Y-77176559D01*
X106539491Y-77335339D01*
X106547501Y-77341826D01*
X106737347Y-77471330D01*
X106746321Y-77476429D01*
X106954769Y-77573187D01*
X106964456Y-77576750D01*
X107185908Y-77638165D01*
X107196030Y-77640096D01*
X107240987Y-77644901D01*
X107255608Y-77642253D01*
X107258853Y-77630412D01*
X107767000Y-77630412D01*
X107771325Y-77645141D01*
X107783111Y-77647202D01*
X107794704Y-77646249D01*
X107804866Y-77644567D01*
X108027771Y-77588578D01*
X108037519Y-77585259D01*
X108248289Y-77493615D01*
X108257364Y-77488749D01*
X108450327Y-77363915D01*
X108458498Y-77357622D01*
X108628480Y-77202950D01*
X108635506Y-77195417D01*
X108777945Y-77015056D01*
X108783650Y-77006469D01*
X108836904Y-76910000D01*
X116886835Y-76910000D01*
X116905465Y-77146711D01*
X116906619Y-77151518D01*
X116906620Y-77151524D01*
X116936122Y-77274408D01*
X116960895Y-77377594D01*
X116962788Y-77382165D01*
X116962789Y-77382167D01*
X117049772Y-77592163D01*
X117051760Y-77596963D01*
X117054346Y-77601183D01*
X117173241Y-77795202D01*
X117173245Y-77795208D01*
X117175824Y-77799416D01*
X117330031Y-77979969D01*
X117510584Y-78134176D01*
X117514792Y-78136755D01*
X117514798Y-78136759D01*
X117708084Y-78255205D01*
X117713037Y-78258240D01*
X117717607Y-78260133D01*
X117717611Y-78260135D01*
X117927833Y-78347211D01*
X117932406Y-78349105D01*
X118012609Y-78368360D01*
X118158476Y-78403380D01*
X118158482Y-78403381D01*
X118163289Y-78404535D01*
X118400000Y-78423165D01*
X118636711Y-78404535D01*
X118641518Y-78403381D01*
X118641524Y-78403380D01*
X118787391Y-78368360D01*
X118867594Y-78349105D01*
X118872167Y-78347211D01*
X119082389Y-78260135D01*
X119082393Y-78260133D01*
X119086963Y-78258240D01*
X119091916Y-78255205D01*
X119275556Y-78142670D01*
X122032160Y-78142670D01*
X122037887Y-78150320D01*
X122209042Y-78255205D01*
X122217837Y-78259687D01*
X122427988Y-78346734D01*
X122437373Y-78349783D01*
X122658554Y-78402885D01*
X122668301Y-78404428D01*
X122895070Y-78422275D01*
X122904930Y-78422275D01*
X123131699Y-78404428D01*
X123141446Y-78402885D01*
X123362627Y-78349783D01*
X123372012Y-78346734D01*
X123582163Y-78259687D01*
X123590958Y-78255205D01*
X123758445Y-78152568D01*
X123767907Y-78142110D01*
X123764124Y-78133334D01*
X122912812Y-77282022D01*
X122898868Y-77274408D01*
X122897035Y-77274539D01*
X122890420Y-77278790D01*
X122038920Y-78130290D01*
X122032160Y-78142670D01*
X119275556Y-78142670D01*
X119285202Y-78136759D01*
X119285208Y-78136755D01*
X119289416Y-78134176D01*
X119469969Y-77979969D01*
X119624176Y-77799416D01*
X119626755Y-77795208D01*
X119626759Y-77795202D01*
X119745654Y-77601183D01*
X119748240Y-77596963D01*
X119750229Y-77592163D01*
X119837211Y-77382167D01*
X119837212Y-77382165D01*
X119839105Y-77377594D01*
X119863878Y-77274408D01*
X119893380Y-77151524D01*
X119893381Y-77151518D01*
X119894535Y-77146711D01*
X119912777Y-76914930D01*
X121387725Y-76914930D01*
X121405572Y-77141699D01*
X121407115Y-77151446D01*
X121460217Y-77372627D01*
X121463266Y-77382012D01*
X121550313Y-77592163D01*
X121554795Y-77600958D01*
X121657432Y-77768445D01*
X121667890Y-77777907D01*
X121676666Y-77774124D01*
X122527978Y-76922812D01*
X122534356Y-76911132D01*
X123264408Y-76911132D01*
X123264539Y-76912965D01*
X123268790Y-76919580D01*
X124120290Y-77771080D01*
X124132670Y-77777840D01*
X124140320Y-77772113D01*
X124245205Y-77600958D01*
X124249687Y-77592163D01*
X124336734Y-77382012D01*
X124339783Y-77372627D01*
X124392885Y-77151446D01*
X124394428Y-77141699D01*
X124412275Y-76914930D01*
X124412275Y-76905070D01*
X124394428Y-76678301D01*
X124392885Y-76668554D01*
X124339783Y-76447373D01*
X124336734Y-76437988D01*
X124249687Y-76227837D01*
X124245205Y-76219042D01*
X124142568Y-76051555D01*
X124132110Y-76042093D01*
X124123334Y-76045876D01*
X123272022Y-76897188D01*
X123264408Y-76911132D01*
X122534356Y-76911132D01*
X122535592Y-76908868D01*
X122535461Y-76907035D01*
X122531210Y-76900420D01*
X121679710Y-76048920D01*
X121667330Y-76042160D01*
X121659680Y-76047887D01*
X121554795Y-76219042D01*
X121550313Y-76227837D01*
X121463266Y-76437988D01*
X121460217Y-76447373D01*
X121407115Y-76668554D01*
X121405572Y-76678301D01*
X121387725Y-76905070D01*
X121387725Y-76914930D01*
X119912777Y-76914930D01*
X119913165Y-76910000D01*
X119894535Y-76673289D01*
X119839105Y-76442406D01*
X119837211Y-76437833D01*
X119750135Y-76227611D01*
X119750133Y-76227607D01*
X119748240Y-76223037D01*
X119745654Y-76218817D01*
X119626759Y-76024798D01*
X119626755Y-76024792D01*
X119624176Y-76020584D01*
X119469969Y-75840031D01*
X119459090Y-75830739D01*
X119445382Y-75819032D01*
X119289416Y-75685824D01*
X119285208Y-75683245D01*
X119285202Y-75683241D01*
X119276470Y-75677890D01*
X122032093Y-75677890D01*
X122035876Y-75686666D01*
X122887188Y-76537978D01*
X122901132Y-76545592D01*
X122902965Y-76545461D01*
X122909580Y-76541210D01*
X123761080Y-75689710D01*
X123767840Y-75677330D01*
X123762113Y-75669680D01*
X123590958Y-75564795D01*
X123582163Y-75560313D01*
X123372012Y-75473266D01*
X123362627Y-75470217D01*
X123141446Y-75417115D01*
X123131699Y-75415572D01*
X122904930Y-75397725D01*
X122895070Y-75397725D01*
X122668301Y-75415572D01*
X122658554Y-75417115D01*
X122437373Y-75470217D01*
X122427988Y-75473266D01*
X122217837Y-75560313D01*
X122209042Y-75564795D01*
X122041555Y-75667432D01*
X122032093Y-75677890D01*
X119276470Y-75677890D01*
X119091183Y-75564346D01*
X119086963Y-75561760D01*
X119082393Y-75559867D01*
X119082389Y-75559865D01*
X118872167Y-75472789D01*
X118872165Y-75472788D01*
X118867594Y-75470895D01*
X118787391Y-75451640D01*
X118641524Y-75416620D01*
X118641518Y-75416619D01*
X118636711Y-75415465D01*
X118400000Y-75396835D01*
X118163289Y-75415465D01*
X118158482Y-75416619D01*
X118158476Y-75416620D01*
X118012609Y-75451640D01*
X117932406Y-75470895D01*
X117927835Y-75472788D01*
X117927833Y-75472789D01*
X117717611Y-75559865D01*
X117717607Y-75559867D01*
X117713037Y-75561760D01*
X117708817Y-75564346D01*
X117514798Y-75683241D01*
X117514792Y-75683245D01*
X117510584Y-75685824D01*
X117354618Y-75819032D01*
X117340911Y-75830739D01*
X117330031Y-75840031D01*
X117175824Y-76020584D01*
X117173245Y-76024792D01*
X117173241Y-76024798D01*
X117054346Y-76218817D01*
X117051760Y-76223037D01*
X117049867Y-76227607D01*
X117049865Y-76227611D01*
X116962789Y-76437833D01*
X116960895Y-76442406D01*
X116905465Y-76673289D01*
X116886835Y-76910000D01*
X108836904Y-76910000D01*
X108894714Y-76805278D01*
X108898944Y-76795866D01*
X108975659Y-76579232D01*
X108978293Y-76569261D01*
X108995647Y-76471837D01*
X108994187Y-76458540D01*
X108979630Y-76454000D01*
X107785115Y-76454000D01*
X107769876Y-76458475D01*
X107768671Y-76459865D01*
X107767000Y-76467548D01*
X107767000Y-77630412D01*
X107258853Y-77630412D01*
X107259000Y-77629876D01*
X107259000Y-76472115D01*
X107254525Y-76456876D01*
X107253135Y-76455671D01*
X107245452Y-76454000D01*
X106044904Y-76454000D01*
X106031560Y-76457918D01*
X106029573Y-76472194D01*
X102108000Y-76472194D01*
X102108000Y-73762263D01*
X106003064Y-73762263D01*
X106039404Y-73999744D01*
X106076094Y-74111997D01*
X106112434Y-74223183D01*
X106112437Y-74223189D01*
X106114042Y-74228101D01*
X106224975Y-74441200D01*
X106369223Y-74633320D01*
X106542912Y-74799301D01*
X106580351Y-74824840D01*
X106625352Y-74879751D01*
X106633523Y-74950275D01*
X106602269Y-75014022D01*
X106577790Y-75034716D01*
X106575674Y-75036085D01*
X106567502Y-75042378D01*
X106397520Y-75197050D01*
X106390494Y-75204583D01*
X106248055Y-75384944D01*
X106242350Y-75393531D01*
X106131286Y-75594722D01*
X106127056Y-75604134D01*
X106050341Y-75820768D01*
X106047707Y-75830739D01*
X106030353Y-75928163D01*
X106031813Y-75941460D01*
X106046370Y-75946000D01*
X108981096Y-75946000D01*
X108994440Y-75942082D01*
X108996427Y-75927806D01*
X108986890Y-75865485D01*
X108984501Y-75855457D01*
X108913102Y-75637012D01*
X108909105Y-75627503D01*
X108802989Y-75423656D01*
X108797495Y-75414931D01*
X108659507Y-75231148D01*
X108652664Y-75223441D01*
X108486509Y-75064661D01*
X108478502Y-75058177D01*
X108445644Y-75035763D01*
X108400641Y-74980852D01*
X108392468Y-74910328D01*
X108423722Y-74846580D01*
X108448204Y-74825884D01*
X108450635Y-74824311D01*
X108454977Y-74821502D01*
X108632670Y-74659814D01*
X108693347Y-74582983D01*
X108778367Y-74475330D01*
X108778370Y-74475325D01*
X108781568Y-74471276D01*
X108795885Y-74445342D01*
X108895177Y-74265474D01*
X108895179Y-74265470D01*
X108897674Y-74260950D01*
X108977870Y-74034485D01*
X108983183Y-74004659D01*
X109019095Y-73803052D01*
X109019096Y-73803046D01*
X109020001Y-73797963D01*
X109022936Y-73557737D01*
X108986596Y-73320256D01*
X108949906Y-73208003D01*
X108913566Y-73096817D01*
X108913563Y-73096811D01*
X108911958Y-73091899D01*
X108801025Y-72878800D01*
X108684585Y-72723717D01*
X108659680Y-72657235D01*
X108674672Y-72587839D01*
X108724802Y-72537565D01*
X108741115Y-72530085D01*
X108751293Y-72526269D01*
X108751296Y-72526267D01*
X108759705Y-72523115D01*
X108876261Y-72435761D01*
X108963615Y-72319205D01*
X109014745Y-72182816D01*
X109021500Y-72120634D01*
X109021500Y-70410000D01*
X116886835Y-70410000D01*
X116905465Y-70646711D01*
X116960895Y-70877594D01*
X116962788Y-70882165D01*
X116962789Y-70882167D01*
X117049772Y-71092163D01*
X117051760Y-71096963D01*
X117054346Y-71101183D01*
X117173241Y-71295202D01*
X117173245Y-71295208D01*
X117175824Y-71299416D01*
X117330031Y-71479969D01*
X117510584Y-71634176D01*
X117514792Y-71636755D01*
X117514798Y-71636759D01*
X117708084Y-71755205D01*
X117713037Y-71758240D01*
X117717607Y-71760133D01*
X117717611Y-71760135D01*
X117927833Y-71847211D01*
X117932406Y-71849105D01*
X118012609Y-71868360D01*
X118158476Y-71903380D01*
X118158482Y-71903381D01*
X118163289Y-71904535D01*
X118400000Y-71923165D01*
X118636711Y-71904535D01*
X118641518Y-71903381D01*
X118641524Y-71903380D01*
X118787391Y-71868360D01*
X118867594Y-71849105D01*
X118872167Y-71847211D01*
X119082389Y-71760135D01*
X119082393Y-71760133D01*
X119086963Y-71758240D01*
X119091916Y-71755205D01*
X119275556Y-71642670D01*
X122032160Y-71642670D01*
X122037887Y-71650320D01*
X122209042Y-71755205D01*
X122217837Y-71759687D01*
X122427988Y-71846734D01*
X122437373Y-71849783D01*
X122658554Y-71902885D01*
X122668301Y-71904428D01*
X122895070Y-71922275D01*
X122904930Y-71922275D01*
X123131699Y-71904428D01*
X123141446Y-71902885D01*
X123362627Y-71849783D01*
X123372012Y-71846734D01*
X123582163Y-71759687D01*
X123590958Y-71755205D01*
X123758445Y-71652568D01*
X123767907Y-71642110D01*
X123764124Y-71633334D01*
X122912812Y-70782022D01*
X122898868Y-70774408D01*
X122897035Y-70774539D01*
X122890420Y-70778790D01*
X122038920Y-71630290D01*
X122032160Y-71642670D01*
X119275556Y-71642670D01*
X119285202Y-71636759D01*
X119285208Y-71636755D01*
X119289416Y-71634176D01*
X119469969Y-71479969D01*
X119624176Y-71299416D01*
X119626755Y-71295208D01*
X119626759Y-71295202D01*
X119745654Y-71101183D01*
X119748240Y-71096963D01*
X119750229Y-71092163D01*
X119837211Y-70882167D01*
X119837212Y-70882165D01*
X119839105Y-70877594D01*
X119894535Y-70646711D01*
X119912777Y-70414930D01*
X121387725Y-70414930D01*
X121405572Y-70641699D01*
X121407115Y-70651446D01*
X121460217Y-70872627D01*
X121463266Y-70882012D01*
X121550313Y-71092163D01*
X121554795Y-71100958D01*
X121657432Y-71268445D01*
X121667890Y-71277907D01*
X121676666Y-71274124D01*
X122527978Y-70422812D01*
X122534356Y-70411132D01*
X123264408Y-70411132D01*
X123264539Y-70412965D01*
X123268790Y-70419580D01*
X124120290Y-71271080D01*
X124132670Y-71277840D01*
X124140320Y-71272113D01*
X124245205Y-71100958D01*
X124249687Y-71092163D01*
X124336734Y-70882012D01*
X124339783Y-70872627D01*
X124392885Y-70651446D01*
X124394428Y-70641699D01*
X124412275Y-70414930D01*
X124412275Y-70405070D01*
X124394428Y-70178301D01*
X124392885Y-70168554D01*
X124339783Y-69947373D01*
X124336734Y-69937988D01*
X124249687Y-69727837D01*
X124245205Y-69719042D01*
X124142568Y-69551555D01*
X124132110Y-69542093D01*
X124123334Y-69545876D01*
X123272022Y-70397188D01*
X123264408Y-70411132D01*
X122534356Y-70411132D01*
X122535592Y-70408868D01*
X122535461Y-70407035D01*
X122531210Y-70400420D01*
X121679710Y-69548920D01*
X121667330Y-69542160D01*
X121659680Y-69547887D01*
X121554795Y-69719042D01*
X121550313Y-69727837D01*
X121463266Y-69937988D01*
X121460217Y-69947373D01*
X121407115Y-70168554D01*
X121405572Y-70178301D01*
X121387725Y-70405070D01*
X121387725Y-70414930D01*
X119912777Y-70414930D01*
X119913165Y-70410000D01*
X119894535Y-70173289D01*
X119881590Y-70119366D01*
X119840260Y-69947218D01*
X119839105Y-69942406D01*
X119833636Y-69929203D01*
X119750135Y-69727611D01*
X119750133Y-69727607D01*
X119748240Y-69723037D01*
X119744470Y-69716885D01*
X119626759Y-69524798D01*
X119626755Y-69524792D01*
X119624176Y-69520584D01*
X119469969Y-69340031D01*
X119289416Y-69185824D01*
X119285208Y-69183245D01*
X119285202Y-69183241D01*
X119276470Y-69177890D01*
X122032093Y-69177890D01*
X122035876Y-69186666D01*
X122887188Y-70037978D01*
X122901132Y-70045592D01*
X122902965Y-70045461D01*
X122909580Y-70041210D01*
X123761080Y-69189710D01*
X123767840Y-69177330D01*
X123762113Y-69169680D01*
X123590958Y-69064795D01*
X123582163Y-69060313D01*
X123372012Y-68973266D01*
X123362627Y-68970217D01*
X123141446Y-68917115D01*
X123131699Y-68915572D01*
X122904930Y-68897725D01*
X122895070Y-68897725D01*
X122668301Y-68915572D01*
X122658554Y-68917115D01*
X122437373Y-68970217D01*
X122427988Y-68973266D01*
X122217837Y-69060313D01*
X122209042Y-69064795D01*
X122041555Y-69167432D01*
X122032093Y-69177890D01*
X119276470Y-69177890D01*
X119091183Y-69064346D01*
X119086963Y-69061760D01*
X119082393Y-69059867D01*
X119082389Y-69059865D01*
X118872167Y-68972789D01*
X118872165Y-68972788D01*
X118867594Y-68970895D01*
X118787391Y-68951640D01*
X118641524Y-68916620D01*
X118641518Y-68916619D01*
X118636711Y-68915465D01*
X118400000Y-68896835D01*
X118163289Y-68915465D01*
X118158482Y-68916619D01*
X118158476Y-68916620D01*
X118012609Y-68951640D01*
X117932406Y-68970895D01*
X117927835Y-68972788D01*
X117927833Y-68972789D01*
X117717611Y-69059865D01*
X117717607Y-69059867D01*
X117713037Y-69061760D01*
X117708817Y-69064346D01*
X117514798Y-69183241D01*
X117514792Y-69183245D01*
X117510584Y-69185824D01*
X117330031Y-69340031D01*
X117175824Y-69520584D01*
X117173245Y-69524792D01*
X117173241Y-69524798D01*
X117055530Y-69716885D01*
X117051760Y-69723037D01*
X117049867Y-69727607D01*
X117049865Y-69727611D01*
X116966364Y-69929203D01*
X116960895Y-69942406D01*
X116959740Y-69947218D01*
X116918411Y-70119366D01*
X116905465Y-70173289D01*
X116886835Y-70410000D01*
X109021500Y-70410000D01*
X109021500Y-70119366D01*
X109014745Y-70057184D01*
X108963615Y-69920795D01*
X108876261Y-69804239D01*
X108759705Y-69716885D01*
X108623316Y-69665755D01*
X108561134Y-69659000D01*
X106464866Y-69659000D01*
X106402684Y-69665755D01*
X106266295Y-69716885D01*
X106149739Y-69804239D01*
X106062385Y-69920795D01*
X106011255Y-70057184D01*
X106004500Y-70119366D01*
X106004500Y-72120634D01*
X106011255Y-72182816D01*
X106062385Y-72319205D01*
X106149739Y-72435761D01*
X106266295Y-72523115D01*
X106286189Y-72530573D01*
X106342953Y-72573213D01*
X106367654Y-72639774D01*
X106352447Y-72709123D01*
X106340842Y-72726647D01*
X106247633Y-72844670D01*
X106247630Y-72844675D01*
X106244432Y-72848724D01*
X106241939Y-72853240D01*
X106241937Y-72853243D01*
X106130823Y-73054526D01*
X106128326Y-73059050D01*
X106048130Y-73285515D01*
X106047223Y-73290608D01*
X106047222Y-73290611D01*
X106041942Y-73320256D01*
X106005999Y-73522037D01*
X106003064Y-73762263D01*
X102108000Y-73762263D01*
X102108000Y-66040000D01*
X105366502Y-66040000D01*
X105386457Y-66268087D01*
X105445716Y-66489243D01*
X105448039Y-66494224D01*
X105448039Y-66494225D01*
X105540151Y-66691762D01*
X105540154Y-66691767D01*
X105542477Y-66696749D01*
X105673802Y-66884300D01*
X105835700Y-67046198D01*
X105840208Y-67049355D01*
X105840211Y-67049357D01*
X105918389Y-67104098D01*
X106023251Y-67177523D01*
X106028233Y-67179846D01*
X106028238Y-67179849D01*
X106225775Y-67271961D01*
X106230757Y-67274284D01*
X106236065Y-67275706D01*
X106236067Y-67275707D01*
X106446598Y-67332119D01*
X106446600Y-67332119D01*
X106451913Y-67333543D01*
X106680000Y-67353498D01*
X106908087Y-67333543D01*
X106913400Y-67332119D01*
X106913402Y-67332119D01*
X107123933Y-67275707D01*
X107123935Y-67275706D01*
X107129243Y-67274284D01*
X107134225Y-67271961D01*
X107331762Y-67179849D01*
X107331767Y-67179846D01*
X107336749Y-67177523D01*
X107441611Y-67104098D01*
X107519789Y-67049357D01*
X107519792Y-67049355D01*
X107524300Y-67046198D01*
X107686198Y-66884300D01*
X107817523Y-66696749D01*
X107819846Y-66691767D01*
X107819849Y-66691762D01*
X107911961Y-66494225D01*
X107911961Y-66494224D01*
X107914284Y-66489243D01*
X107973543Y-66268087D01*
X107993498Y-66040000D01*
X120606502Y-66040000D01*
X120626457Y-66268087D01*
X120685716Y-66489243D01*
X120688039Y-66494224D01*
X120688039Y-66494225D01*
X120780151Y-66691762D01*
X120780154Y-66691767D01*
X120782477Y-66696749D01*
X120913802Y-66884300D01*
X121075700Y-67046198D01*
X121080208Y-67049355D01*
X121080211Y-67049357D01*
X121158389Y-67104098D01*
X121263251Y-67177523D01*
X121268233Y-67179846D01*
X121268238Y-67179849D01*
X121465775Y-67271961D01*
X121470757Y-67274284D01*
X121476065Y-67275706D01*
X121476067Y-67275707D01*
X121686598Y-67332119D01*
X121686600Y-67332119D01*
X121691913Y-67333543D01*
X121920000Y-67353498D01*
X122148087Y-67333543D01*
X122153400Y-67332119D01*
X122153402Y-67332119D01*
X122363933Y-67275707D01*
X122363935Y-67275706D01*
X122369243Y-67274284D01*
X122374225Y-67271961D01*
X122571762Y-67179849D01*
X122571767Y-67179846D01*
X122576749Y-67177523D01*
X122681611Y-67104098D01*
X122759789Y-67049357D01*
X122759792Y-67049355D01*
X122764300Y-67046198D01*
X122926198Y-66884300D01*
X123057523Y-66696749D01*
X123059846Y-66691767D01*
X123059849Y-66691762D01*
X123151961Y-66494225D01*
X123151961Y-66494224D01*
X123154284Y-66489243D01*
X123213543Y-66268087D01*
X123233498Y-66040000D01*
X123213543Y-65811913D01*
X123197411Y-65751707D01*
X123155707Y-65596067D01*
X123155706Y-65596065D01*
X123154284Y-65590757D01*
X123122315Y-65522198D01*
X123059849Y-65388238D01*
X123059846Y-65388233D01*
X123057523Y-65383251D01*
X122926198Y-65195700D01*
X122764300Y-65033802D01*
X122759792Y-65030645D01*
X122759789Y-65030643D01*
X122658804Y-64959933D01*
X122576749Y-64902477D01*
X122571767Y-64900154D01*
X122571762Y-64900151D01*
X122537543Y-64884195D01*
X122484258Y-64837278D01*
X122464797Y-64769001D01*
X122485339Y-64701041D01*
X122537543Y-64655805D01*
X122571762Y-64639849D01*
X122571767Y-64639846D01*
X122576749Y-64637523D01*
X122681611Y-64564098D01*
X122759789Y-64509357D01*
X122759792Y-64509355D01*
X122764300Y-64506198D01*
X122926198Y-64344300D01*
X123057523Y-64156749D01*
X123059846Y-64151767D01*
X123059849Y-64151762D01*
X123151961Y-63954225D01*
X123151961Y-63954224D01*
X123154284Y-63949243D01*
X123178398Y-63859251D01*
X123212119Y-63733402D01*
X123212119Y-63733400D01*
X123213543Y-63728087D01*
X123233498Y-63500000D01*
X123213543Y-63271913D01*
X123154284Y-63050757D01*
X123151961Y-63045775D01*
X123059849Y-62848238D01*
X123059846Y-62848233D01*
X123057523Y-62843251D01*
X122926198Y-62655700D01*
X122764300Y-62493802D01*
X122759792Y-62490645D01*
X122759789Y-62490643D01*
X122681611Y-62435902D01*
X122576749Y-62362477D01*
X122571767Y-62360154D01*
X122571762Y-62360151D01*
X122537543Y-62344195D01*
X122484258Y-62297278D01*
X122464797Y-62229001D01*
X122485339Y-62161041D01*
X122537543Y-62115805D01*
X122571762Y-62099849D01*
X122571767Y-62099846D01*
X122576749Y-62097523D01*
X122681611Y-62024098D01*
X122759789Y-61969357D01*
X122759792Y-61969355D01*
X122764300Y-61966198D01*
X122926198Y-61804300D01*
X123057523Y-61616749D01*
X123059846Y-61611767D01*
X123059849Y-61611762D01*
X123151961Y-61414225D01*
X123151961Y-61414224D01*
X123154284Y-61409243D01*
X123213543Y-61188087D01*
X123233498Y-60960000D01*
X123213543Y-60731913D01*
X123154284Y-60510757D01*
X123151961Y-60505775D01*
X123059849Y-60308238D01*
X123059846Y-60308233D01*
X123057523Y-60303251D01*
X122926198Y-60115700D01*
X122764300Y-59953802D01*
X122759792Y-59950645D01*
X122759789Y-59950643D01*
X122681611Y-59895902D01*
X122576749Y-59822477D01*
X122571767Y-59820154D01*
X122571762Y-59820151D01*
X122537543Y-59804195D01*
X122484258Y-59757278D01*
X122464797Y-59689001D01*
X122485339Y-59621041D01*
X122537543Y-59575805D01*
X122571762Y-59559849D01*
X122571767Y-59559846D01*
X122576749Y-59557523D01*
X122681611Y-59484098D01*
X122759789Y-59429357D01*
X122759792Y-59429355D01*
X122764300Y-59426198D01*
X122926198Y-59264300D01*
X123057523Y-59076749D01*
X123059846Y-59071767D01*
X123059849Y-59071762D01*
X123151961Y-58874225D01*
X123151961Y-58874224D01*
X123154284Y-58869243D01*
X123213543Y-58648087D01*
X123233498Y-58420000D01*
X123213543Y-58191913D01*
X123154284Y-57970757D01*
X123151961Y-57965775D01*
X123059849Y-57768238D01*
X123059846Y-57768233D01*
X123057523Y-57763251D01*
X122926198Y-57575700D01*
X122764300Y-57413802D01*
X122759792Y-57410645D01*
X122759789Y-57410643D01*
X122681611Y-57355902D01*
X122576749Y-57282477D01*
X122571767Y-57280154D01*
X122571762Y-57280151D01*
X122537543Y-57264195D01*
X122484258Y-57217278D01*
X122464797Y-57149001D01*
X122485339Y-57081041D01*
X122537543Y-57035805D01*
X122571762Y-57019849D01*
X122571767Y-57019846D01*
X122576749Y-57017523D01*
X122681611Y-56944098D01*
X122759789Y-56889357D01*
X122759792Y-56889355D01*
X122764300Y-56886198D01*
X122926198Y-56724300D01*
X122940448Y-56703950D01*
X123054366Y-56541257D01*
X123057523Y-56536749D01*
X123059846Y-56531767D01*
X123059849Y-56531762D01*
X123151961Y-56334225D01*
X123151961Y-56334224D01*
X123154284Y-56329243D01*
X123213543Y-56108087D01*
X123233498Y-55880000D01*
X123213543Y-55651913D01*
X123203037Y-55612704D01*
X123155707Y-55436067D01*
X123155706Y-55436065D01*
X123154284Y-55430757D01*
X123122315Y-55362198D01*
X123059849Y-55228238D01*
X123059846Y-55228233D01*
X123057523Y-55223251D01*
X122926198Y-55035700D01*
X122764300Y-54873802D01*
X122759792Y-54870645D01*
X122759789Y-54870643D01*
X122658804Y-54799933D01*
X122576749Y-54742477D01*
X122571767Y-54740154D01*
X122571762Y-54740151D01*
X122537543Y-54724195D01*
X122484258Y-54677278D01*
X122464797Y-54609001D01*
X122485339Y-54541041D01*
X122537543Y-54495805D01*
X122571762Y-54479849D01*
X122571767Y-54479846D01*
X122576749Y-54477523D01*
X122681611Y-54404098D01*
X122759789Y-54349357D01*
X122759792Y-54349355D01*
X122764300Y-54346198D01*
X122926198Y-54184300D01*
X123057523Y-53996749D01*
X123059846Y-53991767D01*
X123059849Y-53991762D01*
X123151961Y-53794225D01*
X123151961Y-53794224D01*
X123154284Y-53789243D01*
X123178398Y-53699251D01*
X123212119Y-53573402D01*
X123212119Y-53573400D01*
X123213543Y-53568087D01*
X123233498Y-53340000D01*
X123213543Y-53111913D01*
X123154284Y-52890757D01*
X123151961Y-52885775D01*
X123059849Y-52688238D01*
X123059846Y-52688233D01*
X123057523Y-52683251D01*
X122926198Y-52495700D01*
X122764300Y-52333802D01*
X122759792Y-52330645D01*
X122759789Y-52330643D01*
X122681611Y-52275902D01*
X122576749Y-52202477D01*
X122571767Y-52200154D01*
X122571762Y-52200151D01*
X122537543Y-52184195D01*
X122484258Y-52137278D01*
X122464797Y-52069001D01*
X122485339Y-52001041D01*
X122537543Y-51955805D01*
X122571762Y-51939849D01*
X122571767Y-51939846D01*
X122576749Y-51937523D01*
X122681611Y-51864098D01*
X122759789Y-51809357D01*
X122759792Y-51809355D01*
X122764300Y-51806198D01*
X122926198Y-51644300D01*
X123057523Y-51456749D01*
X123059846Y-51451767D01*
X123059849Y-51451762D01*
X123151961Y-51254225D01*
X123151961Y-51254224D01*
X123154284Y-51249243D01*
X123213543Y-51028087D01*
X123233498Y-50800000D01*
X123213543Y-50571913D01*
X123154284Y-50350757D01*
X123151961Y-50345775D01*
X123059849Y-50148238D01*
X123059846Y-50148233D01*
X123057523Y-50143251D01*
X122926198Y-49955700D01*
X122764300Y-49793802D01*
X122759792Y-49790645D01*
X122759789Y-49790643D01*
X122681611Y-49735902D01*
X122576749Y-49662477D01*
X122571767Y-49660154D01*
X122571762Y-49660151D01*
X122537543Y-49644195D01*
X122484258Y-49597278D01*
X122464797Y-49529001D01*
X122485339Y-49461041D01*
X122537543Y-49415805D01*
X122571762Y-49399849D01*
X122571767Y-49399846D01*
X122576749Y-49397523D01*
X122681611Y-49324098D01*
X122759789Y-49269357D01*
X122759792Y-49269355D01*
X122764300Y-49266198D01*
X122926198Y-49104300D01*
X123057523Y-48916749D01*
X123059846Y-48911767D01*
X123059849Y-48911762D01*
X123151961Y-48714225D01*
X123151961Y-48714224D01*
X123154284Y-48709243D01*
X123213543Y-48488087D01*
X123233498Y-48260000D01*
X123213543Y-48031913D01*
X123154284Y-47810757D01*
X123151961Y-47805775D01*
X123059849Y-47608238D01*
X123059846Y-47608233D01*
X123057523Y-47603251D01*
X122926198Y-47415700D01*
X122764300Y-47253802D01*
X122759792Y-47250645D01*
X122759789Y-47250643D01*
X122681611Y-47195902D01*
X122576749Y-47122477D01*
X122571767Y-47120154D01*
X122571762Y-47120151D01*
X122537543Y-47104195D01*
X122484258Y-47057278D01*
X122464797Y-46989001D01*
X122485339Y-46921041D01*
X122537543Y-46875805D01*
X122571762Y-46859849D01*
X122571767Y-46859846D01*
X122576749Y-46857523D01*
X122681611Y-46784098D01*
X122759789Y-46729357D01*
X122759792Y-46729355D01*
X122764300Y-46726198D01*
X122926198Y-46564300D01*
X122940448Y-46543950D01*
X123054366Y-46381257D01*
X123057523Y-46376749D01*
X123059846Y-46371767D01*
X123059849Y-46371762D01*
X123151961Y-46174225D01*
X123151961Y-46174224D01*
X123154284Y-46169243D01*
X123213543Y-45948087D01*
X123233498Y-45720000D01*
X123213543Y-45491913D01*
X123198017Y-45433970D01*
X123155707Y-45276067D01*
X123155706Y-45276065D01*
X123154284Y-45270757D01*
X123069134Y-45088151D01*
X123059849Y-45068238D01*
X123059846Y-45068233D01*
X123057523Y-45063251D01*
X122926198Y-44875700D01*
X122764300Y-44713802D01*
X122759792Y-44710645D01*
X122759789Y-44710643D01*
X122681611Y-44655902D01*
X122576749Y-44582477D01*
X122571767Y-44580154D01*
X122571762Y-44580151D01*
X122537543Y-44564195D01*
X122484258Y-44517278D01*
X122464797Y-44449001D01*
X122485339Y-44381041D01*
X122537543Y-44335805D01*
X122571762Y-44319849D01*
X122571767Y-44319846D01*
X122576749Y-44317523D01*
X122681611Y-44244098D01*
X122759789Y-44189357D01*
X122759792Y-44189355D01*
X122764300Y-44186198D01*
X122926198Y-44024300D01*
X123057523Y-43836749D01*
X123059846Y-43831767D01*
X123059849Y-43831762D01*
X123151961Y-43634225D01*
X123151961Y-43634224D01*
X123154284Y-43629243D01*
X123213543Y-43408087D01*
X123233498Y-43180000D01*
X123213543Y-42951913D01*
X123154284Y-42730757D01*
X123059966Y-42528489D01*
X123059849Y-42528238D01*
X123059846Y-42528233D01*
X123057523Y-42523251D01*
X122926198Y-42335700D01*
X122764300Y-42173802D01*
X122759792Y-42170645D01*
X122759789Y-42170643D01*
X122589896Y-42051683D01*
X122576749Y-42042477D01*
X122571767Y-42040154D01*
X122571762Y-42040151D01*
X122536951Y-42023919D01*
X122483666Y-41977002D01*
X122464205Y-41908725D01*
X122484747Y-41840765D01*
X122536951Y-41795529D01*
X122571511Y-41779414D01*
X122581007Y-41773931D01*
X122759467Y-41648972D01*
X122767875Y-41641916D01*
X122921916Y-41487875D01*
X122928972Y-41479467D01*
X123053931Y-41301007D01*
X123059414Y-41291511D01*
X123151490Y-41094053D01*
X123155236Y-41083761D01*
X123201394Y-40911497D01*
X123201058Y-40897401D01*
X123193116Y-40894000D01*
X120652033Y-40894000D01*
X120638502Y-40897973D01*
X120637273Y-40906522D01*
X120684764Y-41083761D01*
X120688510Y-41094053D01*
X120780586Y-41291511D01*
X120786069Y-41301007D01*
X120911028Y-41479467D01*
X120918084Y-41487875D01*
X121072125Y-41641916D01*
X121080533Y-41648972D01*
X121258993Y-41773931D01*
X121268489Y-41779414D01*
X121303049Y-41795529D01*
X121356334Y-41842446D01*
X121375795Y-41910723D01*
X121355253Y-41978683D01*
X121303049Y-42023919D01*
X121268238Y-42040151D01*
X121268233Y-42040154D01*
X121263251Y-42042477D01*
X121250104Y-42051683D01*
X121080211Y-42170643D01*
X121080208Y-42170645D01*
X121075700Y-42173802D01*
X120913802Y-42335700D01*
X120782477Y-42523251D01*
X120780154Y-42528233D01*
X120780151Y-42528238D01*
X120780034Y-42528489D01*
X120685716Y-42730757D01*
X120626457Y-42951913D01*
X120606502Y-43180000D01*
X120626457Y-43408087D01*
X120685716Y-43629243D01*
X120688039Y-43634224D01*
X120688039Y-43634225D01*
X120780151Y-43831762D01*
X120780154Y-43831767D01*
X120782477Y-43836749D01*
X120913802Y-44024300D01*
X121075700Y-44186198D01*
X121080208Y-44189355D01*
X121080211Y-44189357D01*
X121158389Y-44244098D01*
X121263251Y-44317523D01*
X121268233Y-44319846D01*
X121268238Y-44319849D01*
X121302457Y-44335805D01*
X121355742Y-44382722D01*
X121375203Y-44450999D01*
X121354661Y-44518959D01*
X121302457Y-44564195D01*
X121268238Y-44580151D01*
X121268233Y-44580154D01*
X121263251Y-44582477D01*
X121158389Y-44655902D01*
X121080211Y-44710643D01*
X121080208Y-44710645D01*
X121075700Y-44713802D01*
X120913802Y-44875700D01*
X120782477Y-45063251D01*
X120780154Y-45068233D01*
X120780151Y-45068238D01*
X120770866Y-45088151D01*
X120685716Y-45270757D01*
X120684294Y-45276065D01*
X120684293Y-45276067D01*
X120641983Y-45433970D01*
X120626457Y-45491913D01*
X120606502Y-45720000D01*
X120626457Y-45948087D01*
X120685716Y-46169243D01*
X120688039Y-46174224D01*
X120688039Y-46174225D01*
X120780151Y-46371762D01*
X120780154Y-46371767D01*
X120782477Y-46376749D01*
X120785634Y-46381257D01*
X120899553Y-46543950D01*
X120913802Y-46564300D01*
X121075700Y-46726198D01*
X121080208Y-46729355D01*
X121080211Y-46729357D01*
X121158389Y-46784098D01*
X121263251Y-46857523D01*
X121268233Y-46859846D01*
X121268238Y-46859849D01*
X121302457Y-46875805D01*
X121355742Y-46922722D01*
X121375203Y-46990999D01*
X121354661Y-47058959D01*
X121302457Y-47104195D01*
X121268238Y-47120151D01*
X121268233Y-47120154D01*
X121263251Y-47122477D01*
X121158389Y-47195902D01*
X121080211Y-47250643D01*
X121080208Y-47250645D01*
X121075700Y-47253802D01*
X120913802Y-47415700D01*
X120782477Y-47603251D01*
X120780154Y-47608233D01*
X120780151Y-47608238D01*
X120688039Y-47805775D01*
X120685716Y-47810757D01*
X120626457Y-48031913D01*
X120606502Y-48260000D01*
X120626457Y-48488087D01*
X120685716Y-48709243D01*
X120688039Y-48714224D01*
X120688039Y-48714225D01*
X120780151Y-48911762D01*
X120780154Y-48911767D01*
X120782477Y-48916749D01*
X120913802Y-49104300D01*
X121075700Y-49266198D01*
X121080208Y-49269355D01*
X121080211Y-49269357D01*
X121158389Y-49324098D01*
X121263251Y-49397523D01*
X121268233Y-49399846D01*
X121268238Y-49399849D01*
X121302457Y-49415805D01*
X121355742Y-49462722D01*
X121375203Y-49530999D01*
X121354661Y-49598959D01*
X121302457Y-49644195D01*
X121268238Y-49660151D01*
X121268233Y-49660154D01*
X121263251Y-49662477D01*
X121158389Y-49735902D01*
X121080211Y-49790643D01*
X121080208Y-49790645D01*
X121075700Y-49793802D01*
X120913802Y-49955700D01*
X120782477Y-50143251D01*
X120780154Y-50148233D01*
X120780151Y-50148238D01*
X120688039Y-50345775D01*
X120685716Y-50350757D01*
X120626457Y-50571913D01*
X120606502Y-50800000D01*
X120626457Y-51028087D01*
X120685716Y-51249243D01*
X120688039Y-51254224D01*
X120688039Y-51254225D01*
X120780151Y-51451762D01*
X120780154Y-51451767D01*
X120782477Y-51456749D01*
X120913802Y-51644300D01*
X121075700Y-51806198D01*
X121080208Y-51809355D01*
X121080211Y-51809357D01*
X121158389Y-51864098D01*
X121263251Y-51937523D01*
X121268233Y-51939846D01*
X121268238Y-51939849D01*
X121302457Y-51955805D01*
X121355742Y-52002722D01*
X121375203Y-52070999D01*
X121354661Y-52138959D01*
X121302457Y-52184195D01*
X121268238Y-52200151D01*
X121268233Y-52200154D01*
X121263251Y-52202477D01*
X121158389Y-52275902D01*
X121080211Y-52330643D01*
X121080208Y-52330645D01*
X121075700Y-52333802D01*
X120913802Y-52495700D01*
X120782477Y-52683251D01*
X120780154Y-52688233D01*
X120780151Y-52688238D01*
X120688039Y-52885775D01*
X120685716Y-52890757D01*
X120626457Y-53111913D01*
X120606502Y-53340000D01*
X120626457Y-53568087D01*
X120627881Y-53573400D01*
X120627881Y-53573402D01*
X120661603Y-53699251D01*
X120685716Y-53789243D01*
X120688039Y-53794224D01*
X120688039Y-53794225D01*
X120780151Y-53991762D01*
X120780154Y-53991767D01*
X120782477Y-53996749D01*
X120913802Y-54184300D01*
X121075700Y-54346198D01*
X121080208Y-54349355D01*
X121080211Y-54349357D01*
X121158389Y-54404098D01*
X121263251Y-54477523D01*
X121268233Y-54479846D01*
X121268238Y-54479849D01*
X121302457Y-54495805D01*
X121355742Y-54542722D01*
X121375203Y-54610999D01*
X121354661Y-54678959D01*
X121302457Y-54724195D01*
X121268238Y-54740151D01*
X121268233Y-54740154D01*
X121263251Y-54742477D01*
X121181196Y-54799933D01*
X121080211Y-54870643D01*
X121080208Y-54870645D01*
X121075700Y-54873802D01*
X120913802Y-55035700D01*
X120782477Y-55223251D01*
X120780154Y-55228233D01*
X120780151Y-55228238D01*
X120717685Y-55362198D01*
X120685716Y-55430757D01*
X120684294Y-55436065D01*
X120684293Y-55436067D01*
X120636963Y-55612704D01*
X120626457Y-55651913D01*
X120606502Y-55880000D01*
X120626457Y-56108087D01*
X120685716Y-56329243D01*
X120688039Y-56334224D01*
X120688039Y-56334225D01*
X120780151Y-56531762D01*
X120780154Y-56531767D01*
X120782477Y-56536749D01*
X120785634Y-56541257D01*
X120899553Y-56703950D01*
X120913802Y-56724300D01*
X121075700Y-56886198D01*
X121080208Y-56889355D01*
X121080211Y-56889357D01*
X121158389Y-56944098D01*
X121263251Y-57017523D01*
X121268233Y-57019846D01*
X121268238Y-57019849D01*
X121302457Y-57035805D01*
X121355742Y-57082722D01*
X121375203Y-57150999D01*
X121354661Y-57218959D01*
X121302457Y-57264195D01*
X121268238Y-57280151D01*
X121268233Y-57280154D01*
X121263251Y-57282477D01*
X121158389Y-57355902D01*
X121080211Y-57410643D01*
X121080208Y-57410645D01*
X121075700Y-57413802D01*
X120913802Y-57575700D01*
X120782477Y-57763251D01*
X120780154Y-57768233D01*
X120780151Y-57768238D01*
X120688039Y-57965775D01*
X120685716Y-57970757D01*
X120626457Y-58191913D01*
X120606502Y-58420000D01*
X120626457Y-58648087D01*
X120685716Y-58869243D01*
X120688039Y-58874224D01*
X120688039Y-58874225D01*
X120780151Y-59071762D01*
X120780154Y-59071767D01*
X120782477Y-59076749D01*
X120913802Y-59264300D01*
X121075700Y-59426198D01*
X121080208Y-59429355D01*
X121080211Y-59429357D01*
X121158389Y-59484098D01*
X121263251Y-59557523D01*
X121268233Y-59559846D01*
X121268238Y-59559849D01*
X121302457Y-59575805D01*
X121355742Y-59622722D01*
X121375203Y-59690999D01*
X121354661Y-59758959D01*
X121302457Y-59804195D01*
X121268238Y-59820151D01*
X121268233Y-59820154D01*
X121263251Y-59822477D01*
X121158389Y-59895902D01*
X121080211Y-59950643D01*
X121080208Y-59950645D01*
X121075700Y-59953802D01*
X120913802Y-60115700D01*
X120782477Y-60303251D01*
X120780154Y-60308233D01*
X120780151Y-60308238D01*
X120688039Y-60505775D01*
X120685716Y-60510757D01*
X120626457Y-60731913D01*
X120606502Y-60960000D01*
X120626457Y-61188087D01*
X120685716Y-61409243D01*
X120688039Y-61414224D01*
X120688039Y-61414225D01*
X120780151Y-61611762D01*
X120780154Y-61611767D01*
X120782477Y-61616749D01*
X120913802Y-61804300D01*
X121075700Y-61966198D01*
X121080208Y-61969355D01*
X121080211Y-61969357D01*
X121158389Y-62024098D01*
X121263251Y-62097523D01*
X121268233Y-62099846D01*
X121268238Y-62099849D01*
X121302457Y-62115805D01*
X121355742Y-62162722D01*
X121375203Y-62230999D01*
X121354661Y-62298959D01*
X121302457Y-62344195D01*
X121268238Y-62360151D01*
X121268233Y-62360154D01*
X121263251Y-62362477D01*
X121158389Y-62435902D01*
X121080211Y-62490643D01*
X121080208Y-62490645D01*
X121075700Y-62493802D01*
X120913802Y-62655700D01*
X120782477Y-62843251D01*
X120780154Y-62848233D01*
X120780151Y-62848238D01*
X120688039Y-63045775D01*
X120685716Y-63050757D01*
X120626457Y-63271913D01*
X120606502Y-63500000D01*
X120626457Y-63728087D01*
X120627881Y-63733400D01*
X120627881Y-63733402D01*
X120661603Y-63859251D01*
X120685716Y-63949243D01*
X120688039Y-63954224D01*
X120688039Y-63954225D01*
X120780151Y-64151762D01*
X120780154Y-64151767D01*
X120782477Y-64156749D01*
X120913802Y-64344300D01*
X121075700Y-64506198D01*
X121080208Y-64509355D01*
X121080211Y-64509357D01*
X121158389Y-64564098D01*
X121263251Y-64637523D01*
X121268233Y-64639846D01*
X121268238Y-64639849D01*
X121302457Y-64655805D01*
X121355742Y-64702722D01*
X121375203Y-64770999D01*
X121354661Y-64838959D01*
X121302457Y-64884195D01*
X121268238Y-64900151D01*
X121268233Y-64900154D01*
X121263251Y-64902477D01*
X121181196Y-64959933D01*
X121080211Y-65030643D01*
X121080208Y-65030645D01*
X121075700Y-65033802D01*
X120913802Y-65195700D01*
X120782477Y-65383251D01*
X120780154Y-65388233D01*
X120780151Y-65388238D01*
X120717685Y-65522198D01*
X120685716Y-65590757D01*
X120684294Y-65596065D01*
X120684293Y-65596067D01*
X120642589Y-65751707D01*
X120626457Y-65811913D01*
X120606502Y-66040000D01*
X107993498Y-66040000D01*
X107973543Y-65811913D01*
X107957411Y-65751707D01*
X107915707Y-65596067D01*
X107915706Y-65596065D01*
X107914284Y-65590757D01*
X107882315Y-65522198D01*
X107819849Y-65388238D01*
X107819846Y-65388233D01*
X107817523Y-65383251D01*
X107686198Y-65195700D01*
X107524300Y-65033802D01*
X107519792Y-65030645D01*
X107519789Y-65030643D01*
X107418804Y-64959933D01*
X107336749Y-64902477D01*
X107331767Y-64900154D01*
X107331762Y-64900151D01*
X107297543Y-64884195D01*
X107244258Y-64837278D01*
X107224797Y-64769001D01*
X107245339Y-64701041D01*
X107297543Y-64655805D01*
X107331762Y-64639849D01*
X107331767Y-64639846D01*
X107336749Y-64637523D01*
X107441611Y-64564098D01*
X107510302Y-64516000D01*
X109430502Y-64516000D01*
X109450457Y-64744087D01*
X109451881Y-64749400D01*
X109451881Y-64749402D01*
X109492275Y-64900151D01*
X109509716Y-64965243D01*
X109512039Y-64970224D01*
X109512039Y-64970225D01*
X109604151Y-65167762D01*
X109604154Y-65167767D01*
X109606477Y-65172749D01*
X109737802Y-65360300D01*
X109899700Y-65522198D01*
X109904208Y-65525355D01*
X109904211Y-65525357D01*
X109982389Y-65580098D01*
X110087251Y-65653523D01*
X110092233Y-65655846D01*
X110092238Y-65655849D01*
X110289775Y-65747961D01*
X110294757Y-65750284D01*
X110300065Y-65751706D01*
X110300067Y-65751707D01*
X110510598Y-65808119D01*
X110510600Y-65808119D01*
X110515913Y-65809543D01*
X110744000Y-65829498D01*
X110972087Y-65809543D01*
X110977400Y-65808119D01*
X110977402Y-65808119D01*
X111187933Y-65751707D01*
X111187935Y-65751706D01*
X111193243Y-65750284D01*
X111198225Y-65747961D01*
X111395762Y-65655849D01*
X111395767Y-65655846D01*
X111400749Y-65653523D01*
X111505611Y-65580098D01*
X111583789Y-65525357D01*
X111583792Y-65525355D01*
X111588300Y-65522198D01*
X111750198Y-65360300D01*
X111881523Y-65172749D01*
X111883846Y-65167767D01*
X111883849Y-65167762D01*
X111975961Y-64970225D01*
X111975961Y-64970224D01*
X111978284Y-64965243D01*
X111995726Y-64900151D01*
X112036119Y-64749402D01*
X112036119Y-64749400D01*
X112037543Y-64744087D01*
X112057498Y-64516000D01*
X112986502Y-64516000D01*
X113006457Y-64744087D01*
X113007881Y-64749400D01*
X113007881Y-64749402D01*
X113048275Y-64900151D01*
X113065716Y-64965243D01*
X113068039Y-64970224D01*
X113068039Y-64970225D01*
X113160151Y-65167762D01*
X113160154Y-65167767D01*
X113162477Y-65172749D01*
X113293802Y-65360300D01*
X113455700Y-65522198D01*
X113460208Y-65525355D01*
X113460211Y-65525357D01*
X113538389Y-65580098D01*
X113643251Y-65653523D01*
X113648233Y-65655846D01*
X113648238Y-65655849D01*
X113845775Y-65747961D01*
X113850757Y-65750284D01*
X113856065Y-65751706D01*
X113856067Y-65751707D01*
X114066598Y-65808119D01*
X114066600Y-65808119D01*
X114071913Y-65809543D01*
X114300000Y-65829498D01*
X114528087Y-65809543D01*
X114533400Y-65808119D01*
X114533402Y-65808119D01*
X114743933Y-65751707D01*
X114743935Y-65751706D01*
X114749243Y-65750284D01*
X114754225Y-65747961D01*
X114951762Y-65655849D01*
X114951767Y-65655846D01*
X114956749Y-65653523D01*
X115061611Y-65580098D01*
X115139789Y-65525357D01*
X115139792Y-65525355D01*
X115144300Y-65522198D01*
X115306198Y-65360300D01*
X115437523Y-65172749D01*
X115439846Y-65167767D01*
X115439849Y-65167762D01*
X115531961Y-64970225D01*
X115531961Y-64970224D01*
X115534284Y-64965243D01*
X115551726Y-64900151D01*
X115592119Y-64749402D01*
X115592119Y-64749400D01*
X115593543Y-64744087D01*
X115613498Y-64516000D01*
X116542502Y-64516000D01*
X116562457Y-64744087D01*
X116563881Y-64749400D01*
X116563881Y-64749402D01*
X116604275Y-64900151D01*
X116621716Y-64965243D01*
X116624039Y-64970224D01*
X116624039Y-64970225D01*
X116716151Y-65167762D01*
X116716154Y-65167767D01*
X116718477Y-65172749D01*
X116849802Y-65360300D01*
X117011700Y-65522198D01*
X117016208Y-65525355D01*
X117016211Y-65525357D01*
X117094389Y-65580098D01*
X117199251Y-65653523D01*
X117204233Y-65655846D01*
X117204238Y-65655849D01*
X117401775Y-65747961D01*
X117406757Y-65750284D01*
X117412065Y-65751706D01*
X117412067Y-65751707D01*
X117622598Y-65808119D01*
X117622600Y-65808119D01*
X117627913Y-65809543D01*
X117856000Y-65829498D01*
X118084087Y-65809543D01*
X118089400Y-65808119D01*
X118089402Y-65808119D01*
X118299933Y-65751707D01*
X118299935Y-65751706D01*
X118305243Y-65750284D01*
X118310225Y-65747961D01*
X118507762Y-65655849D01*
X118507767Y-65655846D01*
X118512749Y-65653523D01*
X118617611Y-65580098D01*
X118695789Y-65525357D01*
X118695792Y-65525355D01*
X118700300Y-65522198D01*
X118862198Y-65360300D01*
X118993523Y-65172749D01*
X118995846Y-65167767D01*
X118995849Y-65167762D01*
X119087961Y-64970225D01*
X119087961Y-64970224D01*
X119090284Y-64965243D01*
X119107726Y-64900151D01*
X119148119Y-64749402D01*
X119148119Y-64749400D01*
X119149543Y-64744087D01*
X119169498Y-64516000D01*
X119149543Y-64287913D01*
X119148119Y-64282598D01*
X119091707Y-64072067D01*
X119091706Y-64072065D01*
X119090284Y-64066757D01*
X119033011Y-63943933D01*
X118995849Y-63864238D01*
X118995846Y-63864233D01*
X118993523Y-63859251D01*
X118862198Y-63671700D01*
X118700300Y-63509802D01*
X118695792Y-63506645D01*
X118695789Y-63506643D01*
X118617611Y-63451902D01*
X118512749Y-63378477D01*
X118507767Y-63376154D01*
X118507762Y-63376151D01*
X118310225Y-63284039D01*
X118310224Y-63284039D01*
X118305243Y-63281716D01*
X118299935Y-63280294D01*
X118299933Y-63280293D01*
X118089402Y-63223881D01*
X118089400Y-63223881D01*
X118084087Y-63222457D01*
X117856000Y-63202502D01*
X117627913Y-63222457D01*
X117622600Y-63223881D01*
X117622598Y-63223881D01*
X117412067Y-63280293D01*
X117412065Y-63280294D01*
X117406757Y-63281716D01*
X117401776Y-63284039D01*
X117401775Y-63284039D01*
X117204238Y-63376151D01*
X117204233Y-63376154D01*
X117199251Y-63378477D01*
X117094389Y-63451902D01*
X117016211Y-63506643D01*
X117016208Y-63506645D01*
X117011700Y-63509802D01*
X116849802Y-63671700D01*
X116718477Y-63859251D01*
X116716154Y-63864233D01*
X116716151Y-63864238D01*
X116678989Y-63943933D01*
X116621716Y-64066757D01*
X116620294Y-64072065D01*
X116620293Y-64072067D01*
X116563881Y-64282598D01*
X116562457Y-64287913D01*
X116542502Y-64516000D01*
X115613498Y-64516000D01*
X115593543Y-64287913D01*
X115592119Y-64282598D01*
X115535707Y-64072067D01*
X115535706Y-64072065D01*
X115534284Y-64066757D01*
X115477011Y-63943933D01*
X115439849Y-63864238D01*
X115439846Y-63864233D01*
X115437523Y-63859251D01*
X115306198Y-63671700D01*
X115144300Y-63509802D01*
X115139792Y-63506645D01*
X115139789Y-63506643D01*
X115061611Y-63451902D01*
X114956749Y-63378477D01*
X114951767Y-63376154D01*
X114951762Y-63376151D01*
X114754225Y-63284039D01*
X114754224Y-63284039D01*
X114749243Y-63281716D01*
X114743935Y-63280294D01*
X114743933Y-63280293D01*
X114533402Y-63223881D01*
X114533400Y-63223881D01*
X114528087Y-63222457D01*
X114300000Y-63202502D01*
X114071913Y-63222457D01*
X114066600Y-63223881D01*
X114066598Y-63223881D01*
X113856067Y-63280293D01*
X113856065Y-63280294D01*
X113850757Y-63281716D01*
X113845776Y-63284039D01*
X113845775Y-63284039D01*
X113648238Y-63376151D01*
X113648233Y-63376154D01*
X113643251Y-63378477D01*
X113538389Y-63451902D01*
X113460211Y-63506643D01*
X113460208Y-63506645D01*
X113455700Y-63509802D01*
X113293802Y-63671700D01*
X113162477Y-63859251D01*
X113160154Y-63864233D01*
X113160151Y-63864238D01*
X113122989Y-63943933D01*
X113065716Y-64066757D01*
X113064294Y-64072065D01*
X113064293Y-64072067D01*
X113007881Y-64282598D01*
X113006457Y-64287913D01*
X112986502Y-64516000D01*
X112057498Y-64516000D01*
X112037543Y-64287913D01*
X112036119Y-64282598D01*
X111979707Y-64072067D01*
X111979706Y-64072065D01*
X111978284Y-64066757D01*
X111921011Y-63943933D01*
X111883849Y-63864238D01*
X111883846Y-63864233D01*
X111881523Y-63859251D01*
X111750198Y-63671700D01*
X111588300Y-63509802D01*
X111583792Y-63506645D01*
X111583789Y-63506643D01*
X111505611Y-63451902D01*
X111400749Y-63378477D01*
X111395767Y-63376154D01*
X111395762Y-63376151D01*
X111198225Y-63284039D01*
X111198224Y-63284039D01*
X111193243Y-63281716D01*
X111187935Y-63280294D01*
X111187933Y-63280293D01*
X110977402Y-63223881D01*
X110977400Y-63223881D01*
X110972087Y-63222457D01*
X110744000Y-63202502D01*
X110515913Y-63222457D01*
X110510600Y-63223881D01*
X110510598Y-63223881D01*
X110300067Y-63280293D01*
X110300065Y-63280294D01*
X110294757Y-63281716D01*
X110289776Y-63284039D01*
X110289775Y-63284039D01*
X110092238Y-63376151D01*
X110092233Y-63376154D01*
X110087251Y-63378477D01*
X109982389Y-63451902D01*
X109904211Y-63506643D01*
X109904208Y-63506645D01*
X109899700Y-63509802D01*
X109737802Y-63671700D01*
X109606477Y-63859251D01*
X109604154Y-63864233D01*
X109604151Y-63864238D01*
X109566989Y-63943933D01*
X109509716Y-64066757D01*
X109508294Y-64072065D01*
X109508293Y-64072067D01*
X109451881Y-64282598D01*
X109450457Y-64287913D01*
X109430502Y-64516000D01*
X107510302Y-64516000D01*
X107519789Y-64509357D01*
X107519792Y-64509355D01*
X107524300Y-64506198D01*
X107686198Y-64344300D01*
X107817523Y-64156749D01*
X107819846Y-64151767D01*
X107819849Y-64151762D01*
X107911961Y-63954225D01*
X107911961Y-63954224D01*
X107914284Y-63949243D01*
X107938398Y-63859251D01*
X107972119Y-63733402D01*
X107972119Y-63733400D01*
X107973543Y-63728087D01*
X107993498Y-63500000D01*
X107973543Y-63271913D01*
X107914284Y-63050757D01*
X107911961Y-63045775D01*
X107819849Y-62848238D01*
X107819846Y-62848233D01*
X107817523Y-62843251D01*
X107686198Y-62655700D01*
X107524300Y-62493802D01*
X107519792Y-62490645D01*
X107519789Y-62490643D01*
X107441611Y-62435902D01*
X107336749Y-62362477D01*
X107331767Y-62360154D01*
X107331762Y-62360151D01*
X107297543Y-62344195D01*
X107244258Y-62297278D01*
X107224797Y-62229001D01*
X107245339Y-62161041D01*
X107297543Y-62115805D01*
X107331762Y-62099849D01*
X107331767Y-62099846D01*
X107336749Y-62097523D01*
X107441611Y-62024098D01*
X107519789Y-61969357D01*
X107519792Y-61969355D01*
X107524300Y-61966198D01*
X107686198Y-61804300D01*
X107817523Y-61616749D01*
X107819846Y-61611767D01*
X107819849Y-61611762D01*
X107911961Y-61414225D01*
X107911961Y-61414224D01*
X107914284Y-61409243D01*
X107973543Y-61188087D01*
X107993498Y-60960000D01*
X107973543Y-60731913D01*
X107914284Y-60510757D01*
X107911961Y-60505775D01*
X107819849Y-60308238D01*
X107819846Y-60308233D01*
X107817523Y-60303251D01*
X107686198Y-60115700D01*
X107524300Y-59953802D01*
X107519792Y-59950645D01*
X107519789Y-59950643D01*
X107441611Y-59895902D01*
X107336749Y-59822477D01*
X107331767Y-59820154D01*
X107331762Y-59820151D01*
X107297543Y-59804195D01*
X107244258Y-59757278D01*
X107224797Y-59689001D01*
X107245339Y-59621041D01*
X107297543Y-59575805D01*
X107331762Y-59559849D01*
X107331767Y-59559846D01*
X107336749Y-59557523D01*
X107441611Y-59484098D01*
X107519789Y-59429357D01*
X107519792Y-59429355D01*
X107524300Y-59426198D01*
X107686198Y-59264300D01*
X107817523Y-59076749D01*
X107819846Y-59071767D01*
X107819849Y-59071762D01*
X107911961Y-58874225D01*
X107911961Y-58874224D01*
X107914284Y-58869243D01*
X107973543Y-58648087D01*
X107993498Y-58420000D01*
X107973543Y-58191913D01*
X107914284Y-57970757D01*
X107911961Y-57965775D01*
X107819849Y-57768238D01*
X107819846Y-57768233D01*
X107817523Y-57763251D01*
X107686198Y-57575700D01*
X107524300Y-57413802D01*
X107519792Y-57410645D01*
X107519789Y-57410643D01*
X107441611Y-57355902D01*
X107336749Y-57282477D01*
X107331767Y-57280154D01*
X107331762Y-57280151D01*
X107297543Y-57264195D01*
X107244258Y-57217278D01*
X107224797Y-57149001D01*
X107245339Y-57081041D01*
X107297543Y-57035805D01*
X107331762Y-57019849D01*
X107331767Y-57019846D01*
X107336749Y-57017523D01*
X107441611Y-56944098D01*
X107519789Y-56889357D01*
X107519792Y-56889355D01*
X107524300Y-56886198D01*
X107686198Y-56724300D01*
X107700448Y-56703950D01*
X107814366Y-56541257D01*
X107817523Y-56536749D01*
X107819846Y-56531767D01*
X107819849Y-56531762D01*
X107911961Y-56334225D01*
X107911961Y-56334224D01*
X107914284Y-56329243D01*
X107973543Y-56108087D01*
X107993498Y-55880000D01*
X107973543Y-55651913D01*
X107963037Y-55612704D01*
X107915707Y-55436067D01*
X107915706Y-55436065D01*
X107914284Y-55430757D01*
X107882315Y-55362198D01*
X107819849Y-55228238D01*
X107819846Y-55228233D01*
X107817523Y-55223251D01*
X107686198Y-55035700D01*
X107524300Y-54873802D01*
X107519792Y-54870645D01*
X107519789Y-54870643D01*
X107418804Y-54799933D01*
X107336749Y-54742477D01*
X107331767Y-54740154D01*
X107331762Y-54740151D01*
X107297543Y-54724195D01*
X107244258Y-54677278D01*
X107224797Y-54609001D01*
X107245339Y-54541041D01*
X107297543Y-54495805D01*
X107331762Y-54479849D01*
X107331767Y-54479846D01*
X107336749Y-54477523D01*
X107441611Y-54404098D01*
X107510302Y-54356000D01*
X109430502Y-54356000D01*
X109450457Y-54584087D01*
X109451881Y-54589400D01*
X109451881Y-54589402D01*
X109492275Y-54740151D01*
X109509716Y-54805243D01*
X109512039Y-54810224D01*
X109512039Y-54810225D01*
X109604151Y-55007762D01*
X109604154Y-55007767D01*
X109606477Y-55012749D01*
X109737802Y-55200300D01*
X109899700Y-55362198D01*
X109904208Y-55365355D01*
X109904211Y-55365357D01*
X109982389Y-55420098D01*
X110087251Y-55493523D01*
X110092233Y-55495846D01*
X110092238Y-55495849D01*
X110211590Y-55551503D01*
X110294757Y-55590284D01*
X110300065Y-55591706D01*
X110300067Y-55591707D01*
X110510598Y-55648119D01*
X110510600Y-55648119D01*
X110515913Y-55649543D01*
X110744000Y-55669498D01*
X110972087Y-55649543D01*
X110977400Y-55648119D01*
X110977402Y-55648119D01*
X111187933Y-55591707D01*
X111187935Y-55591706D01*
X111193243Y-55590284D01*
X111276410Y-55551503D01*
X111395762Y-55495849D01*
X111395767Y-55495846D01*
X111400749Y-55493523D01*
X111505611Y-55420098D01*
X111583789Y-55365357D01*
X111583792Y-55365355D01*
X111588300Y-55362198D01*
X111750198Y-55200300D01*
X111881523Y-55012749D01*
X111883846Y-55007767D01*
X111883849Y-55007762D01*
X111975961Y-54810225D01*
X111975961Y-54810224D01*
X111978284Y-54805243D01*
X111995726Y-54740151D01*
X112036119Y-54589402D01*
X112036119Y-54589400D01*
X112037543Y-54584087D01*
X112057498Y-54356000D01*
X112986502Y-54356000D01*
X113006457Y-54584087D01*
X113007881Y-54589400D01*
X113007881Y-54589402D01*
X113048275Y-54740151D01*
X113065716Y-54805243D01*
X113068039Y-54810224D01*
X113068039Y-54810225D01*
X113160151Y-55007762D01*
X113160154Y-55007767D01*
X113162477Y-55012749D01*
X113293802Y-55200300D01*
X113455700Y-55362198D01*
X113460208Y-55365355D01*
X113460211Y-55365357D01*
X113538389Y-55420098D01*
X113643251Y-55493523D01*
X113648233Y-55495846D01*
X113648238Y-55495849D01*
X113767590Y-55551503D01*
X113850757Y-55590284D01*
X113856065Y-55591706D01*
X113856067Y-55591707D01*
X114066598Y-55648119D01*
X114066600Y-55648119D01*
X114071913Y-55649543D01*
X114300000Y-55669498D01*
X114528087Y-55649543D01*
X114533400Y-55648119D01*
X114533402Y-55648119D01*
X114743933Y-55591707D01*
X114743935Y-55591706D01*
X114749243Y-55590284D01*
X114832410Y-55551503D01*
X114951762Y-55495849D01*
X114951767Y-55495846D01*
X114956749Y-55493523D01*
X115061611Y-55420098D01*
X115139789Y-55365357D01*
X115139792Y-55365355D01*
X115144300Y-55362198D01*
X115306198Y-55200300D01*
X115437523Y-55012749D01*
X115439846Y-55007767D01*
X115439849Y-55007762D01*
X115531961Y-54810225D01*
X115531961Y-54810224D01*
X115534284Y-54805243D01*
X115551726Y-54740151D01*
X115592119Y-54589402D01*
X115592119Y-54589400D01*
X115593543Y-54584087D01*
X115613498Y-54356000D01*
X116542502Y-54356000D01*
X116562457Y-54584087D01*
X116563881Y-54589400D01*
X116563881Y-54589402D01*
X116604275Y-54740151D01*
X116621716Y-54805243D01*
X116624039Y-54810224D01*
X116624039Y-54810225D01*
X116716151Y-55007762D01*
X116716154Y-55007767D01*
X116718477Y-55012749D01*
X116849802Y-55200300D01*
X117011700Y-55362198D01*
X117016208Y-55365355D01*
X117016211Y-55365357D01*
X117094389Y-55420098D01*
X117199251Y-55493523D01*
X117204233Y-55495846D01*
X117204238Y-55495849D01*
X117323590Y-55551503D01*
X117406757Y-55590284D01*
X117412065Y-55591706D01*
X117412067Y-55591707D01*
X117622598Y-55648119D01*
X117622600Y-55648119D01*
X117627913Y-55649543D01*
X117856000Y-55669498D01*
X118084087Y-55649543D01*
X118089400Y-55648119D01*
X118089402Y-55648119D01*
X118299933Y-55591707D01*
X118299935Y-55591706D01*
X118305243Y-55590284D01*
X118388410Y-55551503D01*
X118507762Y-55495849D01*
X118507767Y-55495846D01*
X118512749Y-55493523D01*
X118617611Y-55420098D01*
X118695789Y-55365357D01*
X118695792Y-55365355D01*
X118700300Y-55362198D01*
X118862198Y-55200300D01*
X118993523Y-55012749D01*
X118995846Y-55007767D01*
X118995849Y-55007762D01*
X119087961Y-54810225D01*
X119087961Y-54810224D01*
X119090284Y-54805243D01*
X119107726Y-54740151D01*
X119148119Y-54589402D01*
X119148119Y-54589400D01*
X119149543Y-54584087D01*
X119169498Y-54356000D01*
X119149543Y-54127913D01*
X119148119Y-54122598D01*
X119091707Y-53912067D01*
X119091706Y-53912065D01*
X119090284Y-53906757D01*
X119033011Y-53783933D01*
X118995849Y-53704238D01*
X118995846Y-53704233D01*
X118993523Y-53699251D01*
X118862198Y-53511700D01*
X118700300Y-53349802D01*
X118695792Y-53346645D01*
X118695789Y-53346643D01*
X118617611Y-53291902D01*
X118512749Y-53218477D01*
X118507767Y-53216154D01*
X118507762Y-53216151D01*
X118310225Y-53124039D01*
X118310224Y-53124039D01*
X118305243Y-53121716D01*
X118299935Y-53120294D01*
X118299933Y-53120293D01*
X118089402Y-53063881D01*
X118089400Y-53063881D01*
X118084087Y-53062457D01*
X117856000Y-53042502D01*
X117627913Y-53062457D01*
X117622600Y-53063881D01*
X117622598Y-53063881D01*
X117412067Y-53120293D01*
X117412065Y-53120294D01*
X117406757Y-53121716D01*
X117401776Y-53124039D01*
X117401775Y-53124039D01*
X117204238Y-53216151D01*
X117204233Y-53216154D01*
X117199251Y-53218477D01*
X117094389Y-53291902D01*
X117016211Y-53346643D01*
X117016208Y-53346645D01*
X117011700Y-53349802D01*
X116849802Y-53511700D01*
X116718477Y-53699251D01*
X116716154Y-53704233D01*
X116716151Y-53704238D01*
X116678989Y-53783933D01*
X116621716Y-53906757D01*
X116620294Y-53912065D01*
X116620293Y-53912067D01*
X116563881Y-54122598D01*
X116562457Y-54127913D01*
X116542502Y-54356000D01*
X115613498Y-54356000D01*
X115593543Y-54127913D01*
X115592119Y-54122598D01*
X115535707Y-53912067D01*
X115535706Y-53912065D01*
X115534284Y-53906757D01*
X115477011Y-53783933D01*
X115439849Y-53704238D01*
X115439846Y-53704233D01*
X115437523Y-53699251D01*
X115306198Y-53511700D01*
X115144300Y-53349802D01*
X115139792Y-53346645D01*
X115139789Y-53346643D01*
X115061611Y-53291902D01*
X114956749Y-53218477D01*
X114951767Y-53216154D01*
X114951762Y-53216151D01*
X114754225Y-53124039D01*
X114754224Y-53124039D01*
X114749243Y-53121716D01*
X114743935Y-53120294D01*
X114743933Y-53120293D01*
X114533402Y-53063881D01*
X114533400Y-53063881D01*
X114528087Y-53062457D01*
X114300000Y-53042502D01*
X114071913Y-53062457D01*
X114066600Y-53063881D01*
X114066598Y-53063881D01*
X113856067Y-53120293D01*
X113856065Y-53120294D01*
X113850757Y-53121716D01*
X113845776Y-53124039D01*
X113845775Y-53124039D01*
X113648238Y-53216151D01*
X113648233Y-53216154D01*
X113643251Y-53218477D01*
X113538389Y-53291902D01*
X113460211Y-53346643D01*
X113460208Y-53346645D01*
X113455700Y-53349802D01*
X113293802Y-53511700D01*
X113162477Y-53699251D01*
X113160154Y-53704233D01*
X113160151Y-53704238D01*
X113122989Y-53783933D01*
X113065716Y-53906757D01*
X113064294Y-53912065D01*
X113064293Y-53912067D01*
X113007881Y-54122598D01*
X113006457Y-54127913D01*
X112986502Y-54356000D01*
X112057498Y-54356000D01*
X112037543Y-54127913D01*
X112036119Y-54122598D01*
X111979707Y-53912067D01*
X111979706Y-53912065D01*
X111978284Y-53906757D01*
X111921011Y-53783933D01*
X111883849Y-53704238D01*
X111883846Y-53704233D01*
X111881523Y-53699251D01*
X111750198Y-53511700D01*
X111588300Y-53349802D01*
X111583792Y-53346645D01*
X111583789Y-53346643D01*
X111505611Y-53291902D01*
X111400749Y-53218477D01*
X111395767Y-53216154D01*
X111395762Y-53216151D01*
X111198225Y-53124039D01*
X111198224Y-53124039D01*
X111193243Y-53121716D01*
X111187935Y-53120294D01*
X111187933Y-53120293D01*
X110977402Y-53063881D01*
X110977400Y-53063881D01*
X110972087Y-53062457D01*
X110744000Y-53042502D01*
X110515913Y-53062457D01*
X110510600Y-53063881D01*
X110510598Y-53063881D01*
X110300067Y-53120293D01*
X110300065Y-53120294D01*
X110294757Y-53121716D01*
X110289776Y-53124039D01*
X110289775Y-53124039D01*
X110092238Y-53216151D01*
X110092233Y-53216154D01*
X110087251Y-53218477D01*
X109982389Y-53291902D01*
X109904211Y-53346643D01*
X109904208Y-53346645D01*
X109899700Y-53349802D01*
X109737802Y-53511700D01*
X109606477Y-53699251D01*
X109604154Y-53704233D01*
X109604151Y-53704238D01*
X109566989Y-53783933D01*
X109509716Y-53906757D01*
X109508294Y-53912065D01*
X109508293Y-53912067D01*
X109451881Y-54122598D01*
X109450457Y-54127913D01*
X109430502Y-54356000D01*
X107510302Y-54356000D01*
X107519789Y-54349357D01*
X107519792Y-54349355D01*
X107524300Y-54346198D01*
X107686198Y-54184300D01*
X107817523Y-53996749D01*
X107819846Y-53991767D01*
X107819849Y-53991762D01*
X107911961Y-53794225D01*
X107911961Y-53794224D01*
X107914284Y-53789243D01*
X107938398Y-53699251D01*
X107972119Y-53573402D01*
X107972119Y-53573400D01*
X107973543Y-53568087D01*
X107993498Y-53340000D01*
X107973543Y-53111913D01*
X107914284Y-52890757D01*
X107911961Y-52885775D01*
X107819849Y-52688238D01*
X107819846Y-52688233D01*
X107817523Y-52683251D01*
X107686198Y-52495700D01*
X107524300Y-52333802D01*
X107519792Y-52330645D01*
X107519789Y-52330643D01*
X107441611Y-52275902D01*
X107336749Y-52202477D01*
X107331767Y-52200154D01*
X107331762Y-52200151D01*
X107297543Y-52184195D01*
X107244258Y-52137278D01*
X107224797Y-52069001D01*
X107245339Y-52001041D01*
X107297543Y-51955805D01*
X107331762Y-51939849D01*
X107331767Y-51939846D01*
X107336749Y-51937523D01*
X107441611Y-51864098D01*
X107519789Y-51809357D01*
X107519792Y-51809355D01*
X107524300Y-51806198D01*
X107686198Y-51644300D01*
X107817523Y-51456749D01*
X107819846Y-51451767D01*
X107819849Y-51451762D01*
X107911961Y-51254225D01*
X107911961Y-51254224D01*
X107914284Y-51249243D01*
X107973543Y-51028087D01*
X107993498Y-50800000D01*
X107973543Y-50571913D01*
X107914284Y-50350757D01*
X107911961Y-50345775D01*
X107819849Y-50148238D01*
X107819846Y-50148233D01*
X107817523Y-50143251D01*
X107686198Y-49955700D01*
X107524300Y-49793802D01*
X107519792Y-49790645D01*
X107519789Y-49790643D01*
X107441611Y-49735902D01*
X107336749Y-49662477D01*
X107331767Y-49660154D01*
X107331762Y-49660151D01*
X107297543Y-49644195D01*
X107244258Y-49597278D01*
X107224797Y-49529001D01*
X107245339Y-49461041D01*
X107297543Y-49415805D01*
X107331762Y-49399849D01*
X107331767Y-49399846D01*
X107336749Y-49397523D01*
X107441611Y-49324098D01*
X107519789Y-49269357D01*
X107519792Y-49269355D01*
X107524300Y-49266198D01*
X107686198Y-49104300D01*
X107817523Y-48916749D01*
X107819846Y-48911767D01*
X107819849Y-48911762D01*
X107911961Y-48714225D01*
X107911961Y-48714224D01*
X107914284Y-48709243D01*
X107973543Y-48488087D01*
X107993498Y-48260000D01*
X107973543Y-48031913D01*
X107914284Y-47810757D01*
X107911961Y-47805775D01*
X107819849Y-47608238D01*
X107819846Y-47608233D01*
X107817523Y-47603251D01*
X107686198Y-47415700D01*
X107524300Y-47253802D01*
X107519792Y-47250645D01*
X107519789Y-47250643D01*
X107441611Y-47195902D01*
X107336749Y-47122477D01*
X107331767Y-47120154D01*
X107331762Y-47120151D01*
X107297543Y-47104195D01*
X107244258Y-47057278D01*
X107224797Y-46989001D01*
X107245339Y-46921041D01*
X107297543Y-46875805D01*
X107331762Y-46859849D01*
X107331767Y-46859846D01*
X107336749Y-46857523D01*
X107441611Y-46784098D01*
X107519789Y-46729357D01*
X107519792Y-46729355D01*
X107524300Y-46726198D01*
X107686198Y-46564300D01*
X107700448Y-46543950D01*
X107814366Y-46381257D01*
X107817523Y-46376749D01*
X107819846Y-46371767D01*
X107819849Y-46371762D01*
X107911961Y-46174225D01*
X107911961Y-46174224D01*
X107914284Y-46169243D01*
X107973543Y-45948087D01*
X107993498Y-45720000D01*
X107973543Y-45491913D01*
X107958017Y-45433970D01*
X107915707Y-45276067D01*
X107915706Y-45276065D01*
X107914284Y-45270757D01*
X107829134Y-45088151D01*
X107819849Y-45068238D01*
X107819846Y-45068233D01*
X107817523Y-45063251D01*
X107686198Y-44875700D01*
X107524300Y-44713802D01*
X107519792Y-44710645D01*
X107519789Y-44710643D01*
X107441611Y-44655902D01*
X107336749Y-44582477D01*
X107331767Y-44580154D01*
X107331762Y-44580151D01*
X107296951Y-44563919D01*
X107243666Y-44517002D01*
X107224205Y-44448725D01*
X107244747Y-44380765D01*
X107296951Y-44335529D01*
X107331511Y-44319414D01*
X107341007Y-44313931D01*
X107519467Y-44188972D01*
X107527875Y-44181916D01*
X107681916Y-44027875D01*
X107688972Y-44019467D01*
X107813931Y-43841007D01*
X107819414Y-43831511D01*
X107911490Y-43634053D01*
X107915236Y-43623761D01*
X107961394Y-43451497D01*
X107961058Y-43437401D01*
X107953116Y-43434000D01*
X105412033Y-43434000D01*
X105398502Y-43437973D01*
X105397273Y-43446522D01*
X105444764Y-43623761D01*
X105448510Y-43634053D01*
X105540586Y-43831511D01*
X105546069Y-43841007D01*
X105671028Y-44019467D01*
X105678084Y-44027875D01*
X105832125Y-44181916D01*
X105840533Y-44188972D01*
X106018993Y-44313931D01*
X106028489Y-44319414D01*
X106063049Y-44335529D01*
X106116334Y-44382446D01*
X106135795Y-44450723D01*
X106115253Y-44518683D01*
X106063049Y-44563919D01*
X106028238Y-44580151D01*
X106028233Y-44580154D01*
X106023251Y-44582477D01*
X105918389Y-44655902D01*
X105840211Y-44710643D01*
X105840208Y-44710645D01*
X105835700Y-44713802D01*
X105673802Y-44875700D01*
X105542477Y-45063251D01*
X105540154Y-45068233D01*
X105540151Y-45068238D01*
X105530866Y-45088151D01*
X105445716Y-45270757D01*
X105444294Y-45276065D01*
X105444293Y-45276067D01*
X105401983Y-45433970D01*
X105386457Y-45491913D01*
X105366502Y-45720000D01*
X105386457Y-45948087D01*
X105445716Y-46169243D01*
X105448039Y-46174224D01*
X105448039Y-46174225D01*
X105540151Y-46371762D01*
X105540154Y-46371767D01*
X105542477Y-46376749D01*
X105545634Y-46381257D01*
X105659553Y-46543950D01*
X105673802Y-46564300D01*
X105835700Y-46726198D01*
X105840208Y-46729355D01*
X105840211Y-46729357D01*
X105918389Y-46784098D01*
X106023251Y-46857523D01*
X106028233Y-46859846D01*
X106028238Y-46859849D01*
X106062457Y-46875805D01*
X106115742Y-46922722D01*
X106135203Y-46990999D01*
X106114661Y-47058959D01*
X106062457Y-47104195D01*
X106028238Y-47120151D01*
X106028233Y-47120154D01*
X106023251Y-47122477D01*
X105918389Y-47195902D01*
X105840211Y-47250643D01*
X105840208Y-47250645D01*
X105835700Y-47253802D01*
X105673802Y-47415700D01*
X105542477Y-47603251D01*
X105540154Y-47608233D01*
X105540151Y-47608238D01*
X105448039Y-47805775D01*
X105445716Y-47810757D01*
X105386457Y-48031913D01*
X105366502Y-48260000D01*
X105386457Y-48488087D01*
X105445716Y-48709243D01*
X105448039Y-48714224D01*
X105448039Y-48714225D01*
X105540151Y-48911762D01*
X105540154Y-48911767D01*
X105542477Y-48916749D01*
X105673802Y-49104300D01*
X105835700Y-49266198D01*
X105840208Y-49269355D01*
X105840211Y-49269357D01*
X105918389Y-49324098D01*
X106023251Y-49397523D01*
X106028233Y-49399846D01*
X106028238Y-49399849D01*
X106062457Y-49415805D01*
X106115742Y-49462722D01*
X106135203Y-49530999D01*
X106114661Y-49598959D01*
X106062457Y-49644195D01*
X106028238Y-49660151D01*
X106028233Y-49660154D01*
X106023251Y-49662477D01*
X105918389Y-49735902D01*
X105840211Y-49790643D01*
X105840208Y-49790645D01*
X105835700Y-49793802D01*
X105673802Y-49955700D01*
X105542477Y-50143251D01*
X105540154Y-50148233D01*
X105540151Y-50148238D01*
X105448039Y-50345775D01*
X105445716Y-50350757D01*
X105386457Y-50571913D01*
X105366502Y-50800000D01*
X105386457Y-51028087D01*
X105445716Y-51249243D01*
X105448039Y-51254224D01*
X105448039Y-51254225D01*
X105540151Y-51451762D01*
X105540154Y-51451767D01*
X105542477Y-51456749D01*
X105673802Y-51644300D01*
X105835700Y-51806198D01*
X105840208Y-51809355D01*
X105840211Y-51809357D01*
X105918389Y-51864098D01*
X106023251Y-51937523D01*
X106028233Y-51939846D01*
X106028238Y-51939849D01*
X106062457Y-51955805D01*
X106115742Y-52002722D01*
X106135203Y-52070999D01*
X106114661Y-52138959D01*
X106062457Y-52184195D01*
X106028238Y-52200151D01*
X106028233Y-52200154D01*
X106023251Y-52202477D01*
X105918389Y-52275902D01*
X105840211Y-52330643D01*
X105840208Y-52330645D01*
X105835700Y-52333802D01*
X105673802Y-52495700D01*
X105542477Y-52683251D01*
X105540154Y-52688233D01*
X105540151Y-52688238D01*
X105448039Y-52885775D01*
X105445716Y-52890757D01*
X105386457Y-53111913D01*
X105366502Y-53340000D01*
X105386457Y-53568087D01*
X105387881Y-53573400D01*
X105387881Y-53573402D01*
X105421603Y-53699251D01*
X105445716Y-53789243D01*
X105448039Y-53794224D01*
X105448039Y-53794225D01*
X105540151Y-53991762D01*
X105540154Y-53991767D01*
X105542477Y-53996749D01*
X105673802Y-54184300D01*
X105835700Y-54346198D01*
X105840208Y-54349355D01*
X105840211Y-54349357D01*
X105918389Y-54404098D01*
X106023251Y-54477523D01*
X106028233Y-54479846D01*
X106028238Y-54479849D01*
X106062457Y-54495805D01*
X106115742Y-54542722D01*
X106135203Y-54610999D01*
X106114661Y-54678959D01*
X106062457Y-54724195D01*
X106028238Y-54740151D01*
X106028233Y-54740154D01*
X106023251Y-54742477D01*
X105941196Y-54799933D01*
X105840211Y-54870643D01*
X105840208Y-54870645D01*
X105835700Y-54873802D01*
X105673802Y-55035700D01*
X105542477Y-55223251D01*
X105540154Y-55228233D01*
X105540151Y-55228238D01*
X105477685Y-55362198D01*
X105445716Y-55430757D01*
X105444294Y-55436065D01*
X105444293Y-55436067D01*
X105396963Y-55612704D01*
X105386457Y-55651913D01*
X105366502Y-55880000D01*
X105386457Y-56108087D01*
X105445716Y-56329243D01*
X105448039Y-56334224D01*
X105448039Y-56334225D01*
X105540151Y-56531762D01*
X105540154Y-56531767D01*
X105542477Y-56536749D01*
X105545634Y-56541257D01*
X105659553Y-56703950D01*
X105673802Y-56724300D01*
X105835700Y-56886198D01*
X105840208Y-56889355D01*
X105840211Y-56889357D01*
X105918389Y-56944098D01*
X106023251Y-57017523D01*
X106028233Y-57019846D01*
X106028238Y-57019849D01*
X106062457Y-57035805D01*
X106115742Y-57082722D01*
X106135203Y-57150999D01*
X106114661Y-57218959D01*
X106062457Y-57264195D01*
X106028238Y-57280151D01*
X106028233Y-57280154D01*
X106023251Y-57282477D01*
X105918389Y-57355902D01*
X105840211Y-57410643D01*
X105840208Y-57410645D01*
X105835700Y-57413802D01*
X105673802Y-57575700D01*
X105542477Y-57763251D01*
X105540154Y-57768233D01*
X105540151Y-57768238D01*
X105448039Y-57965775D01*
X105445716Y-57970757D01*
X105386457Y-58191913D01*
X105366502Y-58420000D01*
X105386457Y-58648087D01*
X105445716Y-58869243D01*
X105448039Y-58874224D01*
X105448039Y-58874225D01*
X105540151Y-59071762D01*
X105540154Y-59071767D01*
X105542477Y-59076749D01*
X105673802Y-59264300D01*
X105835700Y-59426198D01*
X105840208Y-59429355D01*
X105840211Y-59429357D01*
X105918389Y-59484098D01*
X106023251Y-59557523D01*
X106028233Y-59559846D01*
X106028238Y-59559849D01*
X106062457Y-59575805D01*
X106115742Y-59622722D01*
X106135203Y-59690999D01*
X106114661Y-59758959D01*
X106062457Y-59804195D01*
X106028238Y-59820151D01*
X106028233Y-59820154D01*
X106023251Y-59822477D01*
X105918389Y-59895902D01*
X105840211Y-59950643D01*
X105840208Y-59950645D01*
X105835700Y-59953802D01*
X105673802Y-60115700D01*
X105542477Y-60303251D01*
X105540154Y-60308233D01*
X105540151Y-60308238D01*
X105448039Y-60505775D01*
X105445716Y-60510757D01*
X105386457Y-60731913D01*
X105366502Y-60960000D01*
X105386457Y-61188087D01*
X105445716Y-61409243D01*
X105448039Y-61414224D01*
X105448039Y-61414225D01*
X105540151Y-61611762D01*
X105540154Y-61611767D01*
X105542477Y-61616749D01*
X105673802Y-61804300D01*
X105835700Y-61966198D01*
X105840208Y-61969355D01*
X105840211Y-61969357D01*
X105918389Y-62024098D01*
X106023251Y-62097523D01*
X106028233Y-62099846D01*
X106028238Y-62099849D01*
X106062457Y-62115805D01*
X106115742Y-62162722D01*
X106135203Y-62230999D01*
X106114661Y-62298959D01*
X106062457Y-62344195D01*
X106028238Y-62360151D01*
X106028233Y-62360154D01*
X106023251Y-62362477D01*
X105918389Y-62435902D01*
X105840211Y-62490643D01*
X105840208Y-62490645D01*
X105835700Y-62493802D01*
X105673802Y-62655700D01*
X105542477Y-62843251D01*
X105540154Y-62848233D01*
X105540151Y-62848238D01*
X105448039Y-63045775D01*
X105445716Y-63050757D01*
X105386457Y-63271913D01*
X105366502Y-63500000D01*
X105386457Y-63728087D01*
X105387881Y-63733400D01*
X105387881Y-63733402D01*
X105421603Y-63859251D01*
X105445716Y-63949243D01*
X105448039Y-63954224D01*
X105448039Y-63954225D01*
X105540151Y-64151762D01*
X105540154Y-64151767D01*
X105542477Y-64156749D01*
X105673802Y-64344300D01*
X105835700Y-64506198D01*
X105840208Y-64509355D01*
X105840211Y-64509357D01*
X105918389Y-64564098D01*
X106023251Y-64637523D01*
X106028233Y-64639846D01*
X106028238Y-64639849D01*
X106062457Y-64655805D01*
X106115742Y-64702722D01*
X106135203Y-64770999D01*
X106114661Y-64838959D01*
X106062457Y-64884195D01*
X106028238Y-64900151D01*
X106028233Y-64900154D01*
X106023251Y-64902477D01*
X105941196Y-64959933D01*
X105840211Y-65030643D01*
X105840208Y-65030645D01*
X105835700Y-65033802D01*
X105673802Y-65195700D01*
X105542477Y-65383251D01*
X105540154Y-65388233D01*
X105540151Y-65388238D01*
X105477685Y-65522198D01*
X105445716Y-65590757D01*
X105444294Y-65596065D01*
X105444293Y-65596067D01*
X105402589Y-65751707D01*
X105386457Y-65811913D01*
X105366502Y-66040000D01*
X102108000Y-66040000D01*
X102108000Y-57255173D01*
X102128002Y-57187052D01*
X102181658Y-57140559D01*
X102251932Y-57130455D01*
X102316512Y-57159949D01*
X102337213Y-57182902D01*
X102362461Y-57218959D01*
X102371802Y-57232300D01*
X102533700Y-57394198D01*
X102538208Y-57397355D01*
X102538211Y-57397357D01*
X102616389Y-57452098D01*
X102721251Y-57525523D01*
X102726233Y-57527846D01*
X102726238Y-57527849D01*
X102923775Y-57619961D01*
X102928757Y-57622284D01*
X102934065Y-57623706D01*
X102934067Y-57623707D01*
X103144598Y-57680119D01*
X103144600Y-57680119D01*
X103149913Y-57681543D01*
X103378000Y-57701498D01*
X103606087Y-57681543D01*
X103611400Y-57680119D01*
X103611402Y-57680119D01*
X103821933Y-57623707D01*
X103821935Y-57623706D01*
X103827243Y-57622284D01*
X103832225Y-57619961D01*
X104029762Y-57527849D01*
X104029767Y-57527846D01*
X104034749Y-57525523D01*
X104139611Y-57452098D01*
X104217789Y-57397357D01*
X104217792Y-57397355D01*
X104222300Y-57394198D01*
X104384198Y-57232300D01*
X104393540Y-57218959D01*
X104512366Y-57049257D01*
X104515523Y-57044749D01*
X104517846Y-57039767D01*
X104517849Y-57039762D01*
X104609961Y-56842225D01*
X104609961Y-56842224D01*
X104612284Y-56837243D01*
X104671543Y-56616087D01*
X104691498Y-56388000D01*
X104671543Y-56159913D01*
X104612284Y-55938757D01*
X104609961Y-55933775D01*
X104517849Y-55736238D01*
X104517846Y-55736233D01*
X104515523Y-55731251D01*
X104384198Y-55543700D01*
X104222300Y-55381802D01*
X104217792Y-55378645D01*
X104217789Y-55378643D01*
X104139611Y-55323902D01*
X104034749Y-55250477D01*
X104029767Y-55248154D01*
X104029762Y-55248151D01*
X103832225Y-55156039D01*
X103832224Y-55156039D01*
X103827243Y-55153716D01*
X103821935Y-55152294D01*
X103821933Y-55152293D01*
X103611402Y-55095881D01*
X103611400Y-55095881D01*
X103606087Y-55094457D01*
X103378000Y-55074502D01*
X103149913Y-55094457D01*
X103144600Y-55095881D01*
X103144598Y-55095881D01*
X102934067Y-55152293D01*
X102934065Y-55152294D01*
X102928757Y-55153716D01*
X102923776Y-55156039D01*
X102923775Y-55156039D01*
X102726238Y-55248151D01*
X102726233Y-55248154D01*
X102721251Y-55250477D01*
X102616389Y-55323902D01*
X102538211Y-55378643D01*
X102538208Y-55378645D01*
X102533700Y-55381802D01*
X102371802Y-55543700D01*
X102368645Y-55548208D01*
X102368643Y-55548211D01*
X102337213Y-55593098D01*
X102281756Y-55637426D01*
X102211136Y-55644735D01*
X102147776Y-55612704D01*
X102111791Y-55551503D01*
X102108000Y-55520827D01*
X102108000Y-47094301D01*
X102128002Y-47026180D01*
X102181658Y-46979687D01*
X102251932Y-46969583D01*
X102316512Y-46999077D01*
X102337213Y-47022030D01*
X102369028Y-47067467D01*
X102376084Y-47075875D01*
X102530125Y-47229916D01*
X102538533Y-47236972D01*
X102716993Y-47361931D01*
X102726489Y-47367414D01*
X102923947Y-47459490D01*
X102934239Y-47463236D01*
X103106503Y-47509394D01*
X103120599Y-47509058D01*
X103124000Y-47501116D01*
X103124000Y-47495967D01*
X103632000Y-47495967D01*
X103635973Y-47509498D01*
X103644522Y-47510727D01*
X103821761Y-47463236D01*
X103832053Y-47459490D01*
X104029511Y-47367414D01*
X104039007Y-47361931D01*
X104217467Y-47236972D01*
X104225875Y-47229916D01*
X104379916Y-47075875D01*
X104386972Y-47067467D01*
X104511931Y-46889007D01*
X104517414Y-46879511D01*
X104609490Y-46682053D01*
X104613236Y-46671761D01*
X104659394Y-46499497D01*
X104659058Y-46485401D01*
X104651116Y-46482000D01*
X103650115Y-46482000D01*
X103634876Y-46486475D01*
X103633671Y-46487865D01*
X103632000Y-46495548D01*
X103632000Y-47495967D01*
X103124000Y-47495967D01*
X103124000Y-45955885D01*
X103632000Y-45955885D01*
X103636475Y-45971124D01*
X103637865Y-45972329D01*
X103645548Y-45974000D01*
X104645967Y-45974000D01*
X104659498Y-45970027D01*
X104660727Y-45961478D01*
X104613236Y-45784239D01*
X104609490Y-45773947D01*
X104517414Y-45576489D01*
X104511931Y-45566993D01*
X104386972Y-45388533D01*
X104379916Y-45380125D01*
X104225875Y-45226084D01*
X104217467Y-45219028D01*
X104039007Y-45094069D01*
X104029511Y-45088586D01*
X103832053Y-44996510D01*
X103821761Y-44992764D01*
X103649497Y-44946606D01*
X103635401Y-44946942D01*
X103632000Y-44954884D01*
X103632000Y-45955885D01*
X103124000Y-45955885D01*
X103124000Y-44960033D01*
X103120027Y-44946502D01*
X103111478Y-44945273D01*
X102934239Y-44992764D01*
X102923947Y-44996510D01*
X102726489Y-45088586D01*
X102716993Y-45094069D01*
X102538533Y-45219028D01*
X102530125Y-45226084D01*
X102376084Y-45380125D01*
X102369028Y-45388533D01*
X102337213Y-45433970D01*
X102281756Y-45478298D01*
X102211137Y-45485607D01*
X102147776Y-45453576D01*
X102111791Y-45392375D01*
X102108000Y-45361699D01*
X102108000Y-42310919D01*
X102128002Y-42242798D01*
X102181658Y-42196305D01*
X102251932Y-42186201D01*
X102280836Y-42195839D01*
X102281295Y-42194615D01*
X102417684Y-42245745D01*
X102479866Y-42252500D01*
X104276134Y-42252500D01*
X104338316Y-42245745D01*
X104474705Y-42194615D01*
X104591261Y-42107261D01*
X104678615Y-41990705D01*
X104729745Y-41854316D01*
X104736500Y-41792134D01*
X104736500Y-40640000D01*
X105366502Y-40640000D01*
X105386457Y-40868087D01*
X105387881Y-40873400D01*
X105387881Y-40873402D01*
X105439871Y-41067428D01*
X105445716Y-41089243D01*
X105448039Y-41094224D01*
X105448039Y-41094225D01*
X105540151Y-41291762D01*
X105540154Y-41291767D01*
X105542477Y-41296749D01*
X105545634Y-41301257D01*
X105664012Y-41470318D01*
X105673802Y-41484300D01*
X105835700Y-41646198D01*
X105840208Y-41649355D01*
X105840211Y-41649357D01*
X105840821Y-41649784D01*
X106023251Y-41777523D01*
X106028233Y-41779846D01*
X106028238Y-41779849D01*
X106063049Y-41796081D01*
X106116334Y-41842998D01*
X106135795Y-41911275D01*
X106115253Y-41979235D01*
X106063049Y-42024471D01*
X106028489Y-42040586D01*
X106018993Y-42046069D01*
X105840533Y-42171028D01*
X105832125Y-42178084D01*
X105678084Y-42332125D01*
X105671028Y-42340533D01*
X105546069Y-42518993D01*
X105540586Y-42528489D01*
X105448510Y-42725947D01*
X105444764Y-42736239D01*
X105398606Y-42908503D01*
X105398942Y-42922599D01*
X105406884Y-42926000D01*
X107947967Y-42926000D01*
X107961498Y-42922027D01*
X107962727Y-42913478D01*
X107915236Y-42736239D01*
X107911490Y-42725947D01*
X107819414Y-42528489D01*
X107813931Y-42518993D01*
X107688972Y-42340533D01*
X107681916Y-42332125D01*
X107527875Y-42178084D01*
X107519467Y-42171028D01*
X107341007Y-42046069D01*
X107331511Y-42040586D01*
X107296951Y-42024471D01*
X107243666Y-41977554D01*
X107224205Y-41909277D01*
X107244747Y-41841317D01*
X107296951Y-41796081D01*
X107331762Y-41779849D01*
X107331767Y-41779846D01*
X107336749Y-41777523D01*
X107519179Y-41649784D01*
X107519789Y-41649357D01*
X107519792Y-41649355D01*
X107524300Y-41646198D01*
X107686198Y-41484300D01*
X107695989Y-41470318D01*
X107814366Y-41301257D01*
X107817523Y-41296749D01*
X107819846Y-41291767D01*
X107819849Y-41291762D01*
X107911961Y-41094225D01*
X107911961Y-41094224D01*
X107914284Y-41089243D01*
X107920130Y-41067428D01*
X107972119Y-40873402D01*
X107972119Y-40873400D01*
X107973543Y-40868087D01*
X107993498Y-40640000D01*
X107973543Y-40411913D01*
X107965073Y-40380301D01*
X107915707Y-40196067D01*
X107915706Y-40196065D01*
X107914284Y-40190757D01*
X107824999Y-39999283D01*
X107819849Y-39988238D01*
X107819846Y-39988233D01*
X107817523Y-39983251D01*
X107744098Y-39878389D01*
X107689357Y-39800211D01*
X107689355Y-39800208D01*
X107686198Y-39795700D01*
X107524300Y-39633802D01*
X107519789Y-39630643D01*
X107515576Y-39627108D01*
X107516527Y-39625974D01*
X107476529Y-39575929D01*
X107469224Y-39505310D01*
X107501258Y-39441951D01*
X107562462Y-39405970D01*
X107579517Y-39402918D01*
X107590316Y-39401745D01*
X107726705Y-39350615D01*
X107843261Y-39263261D01*
X107930615Y-39146705D01*
X107981745Y-39010316D01*
X107988500Y-38948134D01*
X107988500Y-38100000D01*
X120606502Y-38100000D01*
X120626457Y-38328087D01*
X120627881Y-38333400D01*
X120627881Y-38333402D01*
X120637031Y-38367548D01*
X120685716Y-38549243D01*
X120688039Y-38554224D01*
X120688039Y-38554225D01*
X120780151Y-38751762D01*
X120780154Y-38751767D01*
X120782477Y-38756749D01*
X120913802Y-38944300D01*
X121075700Y-39106198D01*
X121080208Y-39109355D01*
X121080211Y-39109357D01*
X121091989Y-39117604D01*
X121263251Y-39237523D01*
X121268233Y-39239846D01*
X121268238Y-39239849D01*
X121303049Y-39256081D01*
X121356334Y-39302998D01*
X121375795Y-39371275D01*
X121355253Y-39439235D01*
X121303049Y-39484471D01*
X121268489Y-39500586D01*
X121258993Y-39506069D01*
X121080533Y-39631028D01*
X121072125Y-39638084D01*
X120918084Y-39792125D01*
X120911028Y-39800533D01*
X120786069Y-39978993D01*
X120780586Y-39988489D01*
X120688510Y-40185947D01*
X120684764Y-40196239D01*
X120638606Y-40368503D01*
X120638942Y-40382599D01*
X120646884Y-40386000D01*
X123187967Y-40386000D01*
X123201498Y-40382027D01*
X123202727Y-40373478D01*
X123155236Y-40196239D01*
X123151490Y-40185947D01*
X123059414Y-39988489D01*
X123053931Y-39978993D01*
X122928972Y-39800533D01*
X122921916Y-39792125D01*
X122767875Y-39638084D01*
X122759467Y-39631028D01*
X122581007Y-39506069D01*
X122571511Y-39500586D01*
X122536951Y-39484471D01*
X122483666Y-39437554D01*
X122464205Y-39369277D01*
X122484747Y-39301317D01*
X122536951Y-39256081D01*
X122571762Y-39239849D01*
X122571767Y-39239846D01*
X122576749Y-39237523D01*
X122748011Y-39117604D01*
X122759789Y-39109357D01*
X122759792Y-39109355D01*
X122764300Y-39106198D01*
X122926198Y-38944300D01*
X123057523Y-38756749D01*
X123059846Y-38751767D01*
X123059849Y-38751762D01*
X123151961Y-38554225D01*
X123151961Y-38554224D01*
X123154284Y-38549243D01*
X123202970Y-38367548D01*
X123212119Y-38333402D01*
X123212119Y-38333400D01*
X123213543Y-38328087D01*
X123233498Y-38100000D01*
X123213543Y-37871913D01*
X123205028Y-37840135D01*
X123201746Y-37827885D01*
X123814000Y-37827885D01*
X123818475Y-37843124D01*
X123819865Y-37844329D01*
X123827548Y-37846000D01*
X124949885Y-37846000D01*
X124965124Y-37841525D01*
X124966329Y-37840135D01*
X124968000Y-37832452D01*
X124968000Y-36710116D01*
X124963525Y-36694877D01*
X124962135Y-36693672D01*
X124954452Y-36692001D01*
X124277331Y-36692001D01*
X124270510Y-36692371D01*
X124219648Y-36697895D01*
X124204396Y-36701521D01*
X124083946Y-36746676D01*
X124068351Y-36755214D01*
X123966276Y-36831715D01*
X123953715Y-36844276D01*
X123877214Y-36946351D01*
X123868676Y-36961946D01*
X123823522Y-37082394D01*
X123819895Y-37097649D01*
X123814369Y-37148514D01*
X123814000Y-37155328D01*
X123814000Y-37827885D01*
X123201746Y-37827885D01*
X123155707Y-37656067D01*
X123155706Y-37656065D01*
X123154284Y-37650757D01*
X123151961Y-37645775D01*
X123059849Y-37448238D01*
X123059846Y-37448233D01*
X123057523Y-37443251D01*
X122926198Y-37255700D01*
X122764300Y-37093802D01*
X122759792Y-37090645D01*
X122759789Y-37090643D01*
X122681611Y-37035902D01*
X122576749Y-36962477D01*
X122571767Y-36960154D01*
X122571762Y-36960151D01*
X122374225Y-36868039D01*
X122374224Y-36868039D01*
X122369243Y-36865716D01*
X122363935Y-36864294D01*
X122363933Y-36864293D01*
X122153402Y-36807881D01*
X122153400Y-36807881D01*
X122148087Y-36806457D01*
X121920000Y-36786502D01*
X121691913Y-36806457D01*
X121686600Y-36807881D01*
X121686598Y-36807881D01*
X121476067Y-36864293D01*
X121476065Y-36864294D01*
X121470757Y-36865716D01*
X121465776Y-36868039D01*
X121465775Y-36868039D01*
X121268238Y-36960151D01*
X121268233Y-36960154D01*
X121263251Y-36962477D01*
X121158389Y-37035902D01*
X121080211Y-37090643D01*
X121080208Y-37090645D01*
X121075700Y-37093802D01*
X120913802Y-37255700D01*
X120782477Y-37443251D01*
X120780154Y-37448233D01*
X120780151Y-37448238D01*
X120688039Y-37645775D01*
X120685716Y-37650757D01*
X120684294Y-37656065D01*
X120684293Y-37656067D01*
X120634972Y-37840135D01*
X120626457Y-37871913D01*
X120606502Y-38100000D01*
X107988500Y-38100000D01*
X107988500Y-37251866D01*
X107981745Y-37189684D01*
X107930615Y-37053295D01*
X107843261Y-36936739D01*
X107726705Y-36849385D01*
X107590316Y-36798255D01*
X107528134Y-36791500D01*
X105831866Y-36791500D01*
X105769684Y-36798255D01*
X105633295Y-36849385D01*
X105516739Y-36936739D01*
X105429385Y-37053295D01*
X105378255Y-37189684D01*
X105371500Y-37251866D01*
X105371500Y-38948134D01*
X105378255Y-39010316D01*
X105429385Y-39146705D01*
X105516739Y-39263261D01*
X105633295Y-39350615D01*
X105769684Y-39401745D01*
X105780474Y-39402917D01*
X105782606Y-39403803D01*
X105785222Y-39404425D01*
X105785121Y-39404848D01*
X105846035Y-39430155D01*
X105886463Y-39488517D01*
X105888922Y-39559471D01*
X105852629Y-39620490D01*
X105843969Y-39627489D01*
X105840207Y-39630646D01*
X105835700Y-39633802D01*
X105673802Y-39795700D01*
X105670645Y-39800208D01*
X105670643Y-39800211D01*
X105615902Y-39878389D01*
X105542477Y-39983251D01*
X105540154Y-39988233D01*
X105540151Y-39988238D01*
X105535001Y-39999283D01*
X105445716Y-40190757D01*
X105444294Y-40196065D01*
X105444293Y-40196067D01*
X105394927Y-40380301D01*
X105386457Y-40411913D01*
X105366502Y-40640000D01*
X104736500Y-40640000D01*
X104736500Y-39995866D01*
X104729745Y-39933684D01*
X104678615Y-39797295D01*
X104591261Y-39680739D01*
X104474705Y-39593385D01*
X104338316Y-39542255D01*
X104276134Y-39535500D01*
X102479866Y-39535500D01*
X102417684Y-39542255D01*
X102281295Y-39593385D01*
X102280292Y-39590711D01*
X102225150Y-39602770D01*
X102158602Y-39578032D01*
X102115993Y-39521243D01*
X102108000Y-39477081D01*
X102108000Y-36194000D01*
X102128002Y-36125879D01*
X102181658Y-36079386D01*
X102234000Y-36068000D01*
X126366000Y-36068000D01*
X126434121Y-36088002D01*
G37*
G04 #@! TD.AperFunction*
M02*
