G04 #@! TF.GenerationSoftware,KiCad,Pcbnew,(6.0.2)*
G04 #@! TF.CreationDate,2022-03-19T10:13:49-07:00*
G04 #@! TF.ProjectId,ir-emit-v1,69722d65-6d69-4742-9d76-312e6b696361,rev?*
G04 #@! TF.SameCoordinates,Original*
G04 #@! TF.FileFunction,Copper,L2,Bot*
G04 #@! TF.FilePolarity,Positive*
%FSLAX46Y46*%
G04 Gerber Fmt 4.6, Leading zero omitted, Abs format (unit mm)*
G04 Created by KiCad (PCBNEW (6.0.2)) date 2022-03-19 10:13:49*
%MOMM*%
%LPD*%
G01*
G04 APERTURE LIST*
G04 #@! TA.AperFunction,ComponentPad*
%ADD10R,1.700000X1.700000*%
G04 #@! TD*
G04 #@! TA.AperFunction,ComponentPad*
%ADD11O,1.600000X1.600000*%
G04 #@! TD*
G04 #@! TA.AperFunction,ComponentPad*
%ADD12R,1.600000X1.600000*%
G04 #@! TD*
G04 #@! TA.AperFunction,ComponentPad*
%ADD13C,2.000000*%
G04 #@! TD*
G04 #@! TA.AperFunction,ComponentPad*
%ADD14C,1.600000*%
G04 #@! TD*
G04 #@! TA.AperFunction,ComponentPad*
%ADD15R,2.000000X1.905000*%
G04 #@! TD*
G04 #@! TA.AperFunction,ComponentPad*
%ADD16O,2.000000X1.905000*%
G04 #@! TD*
G04 #@! TA.AperFunction,ComponentPad*
%ADD17R,1.800000X1.800000*%
G04 #@! TD*
G04 #@! TA.AperFunction,ComponentPad*
%ADD18C,1.800000*%
G04 #@! TD*
G04 #@! TA.AperFunction,Conductor*
%ADD19C,0.750000*%
G04 #@! TD*
G04 APERTURE END LIST*
D10*
X103378000Y-40894000D03*
D11*
X121920000Y-66040000D03*
X121920000Y-63500000D03*
X121920000Y-60960000D03*
D12*
X106680000Y-38100000D03*
D11*
X121920000Y-58420000D03*
X106680000Y-40640000D03*
X121920000Y-55880000D03*
X106680000Y-43180000D03*
X121920000Y-53340000D03*
X106680000Y-45720000D03*
X121920000Y-50800000D03*
X106680000Y-48260000D03*
X121920000Y-48260000D03*
X106680000Y-50800000D03*
X121920000Y-45720000D03*
X106680000Y-53340000D03*
X121920000Y-43180000D03*
X106680000Y-55880000D03*
X121920000Y-40640000D03*
X106680000Y-58420000D03*
X121920000Y-38100000D03*
X106680000Y-60960000D03*
X106680000Y-63500000D03*
X106680000Y-66040000D03*
D13*
X118400000Y-70410000D03*
X118400000Y-76910000D03*
X122900000Y-70410000D03*
X122900000Y-76910000D03*
D14*
X125222000Y-56388000D03*
D11*
X125222000Y-46228000D03*
X117856000Y-54356000D03*
D14*
X117856000Y-64516000D03*
X114300000Y-64516000D03*
D11*
X114300000Y-54356000D03*
X110744000Y-54356000D03*
D14*
X110744000Y-64516000D03*
X103378000Y-56388000D03*
D11*
X103378000Y-46228000D03*
D15*
X107513000Y-71120000D03*
D16*
X107513000Y-73660000D03*
X107513000Y-76200000D03*
D17*
X125222000Y-38100000D03*
D18*
X125222000Y-40640000D03*
D17*
X119883000Y-81280000D03*
D18*
X122423000Y-81280000D03*
D17*
X112644000Y-83820000D03*
D18*
X115184000Y-83820000D03*
D17*
X105405000Y-81280000D03*
D18*
X107945000Y-81280000D03*
D19*
X120800022Y-79248000D02*
X122423000Y-80870978D01*
X118110000Y-79248000D02*
X120800022Y-79248000D01*
X116586000Y-77724000D02*
X118110000Y-79248000D01*
X116586000Y-65786000D02*
X116586000Y-77724000D01*
X122423000Y-80870978D02*
X122423000Y-81280000D01*
X117856000Y-64516000D02*
X116586000Y-65786000D01*
X118921489Y-85294511D02*
X119883000Y-84333000D01*
X114118511Y-85294511D02*
X118921489Y-85294511D01*
X112644000Y-83820000D02*
X114118511Y-85294511D01*
X119883000Y-84333000D02*
X119883000Y-81280000D01*
X106680000Y-40640000D02*
X103632000Y-40640000D01*
X103632000Y-40640000D02*
X103378000Y-40894000D01*
X114300000Y-45720000D02*
X121920000Y-38100000D01*
X114300000Y-54356000D02*
X114300000Y-45720000D01*
X114300000Y-54356000D02*
X117856000Y-54356000D01*
X110744000Y-54356000D02*
X114300000Y-54356000D01*
X106295000Y-83820000D02*
X112644000Y-83820000D01*
X105405000Y-82930000D02*
X106295000Y-83820000D01*
X105405000Y-81280000D02*
X105405000Y-82930000D01*
X125222000Y-46228000D02*
X125222000Y-40640000D01*
X125222000Y-62738000D02*
X125222000Y-56388000D01*
X121920000Y-66040000D02*
X125222000Y-62738000D01*
X119380000Y-45720000D02*
X121920000Y-43180000D01*
X119380000Y-69430000D02*
X119380000Y-45720000D01*
X118400000Y-70410000D02*
X119380000Y-69430000D01*
X118400000Y-76910000D02*
X118400000Y-70410000D01*
X115184000Y-65400000D02*
X114300000Y-64516000D01*
X115184000Y-83820000D02*
X115184000Y-65400000D01*
X110744000Y-78481000D02*
X110744000Y-64516000D01*
X107945000Y-81280000D02*
X110744000Y-78481000D01*
X105405000Y-75768000D02*
X105405000Y-81280000D01*
X107513000Y-73660000D02*
X105405000Y-75768000D01*
X103378000Y-70358000D02*
X104140000Y-71120000D01*
X104140000Y-71120000D02*
X107513000Y-71120000D01*
X103378000Y-56388000D02*
X103378000Y-70358000D01*
X103378000Y-51562000D02*
X103378000Y-56388000D01*
X104140000Y-50800000D02*
X103378000Y-51562000D01*
X106680000Y-50800000D02*
X104140000Y-50800000D01*
M02*
