G04 #@! TF.GenerationSoftware,KiCad,Pcbnew,(6.0.2)*
G04 #@! TF.CreationDate,2022-03-19T10:13:49-07:00*
G04 #@! TF.ProjectId,ir-emit-v1,69722d65-6d69-4742-9d76-312e6b696361,rev?*
G04 #@! TF.SameCoordinates,Original*
G04 #@! TF.FileFunction,Soldermask,Top*
G04 #@! TF.FilePolarity,Negative*
%FSLAX46Y46*%
G04 Gerber Fmt 4.6, Leading zero omitted, Abs format (unit mm)*
G04 Created by KiCad (PCBNEW (6.0.2)) date 2022-03-19 10:13:49*
%MOMM*%
%LPD*%
G01*
G04 APERTURE LIST*
%ADD10R,1.700000X1.700000*%
%ADD11O,1.600000X1.600000*%
%ADD12R,1.600000X1.600000*%
%ADD13C,2.000000*%
%ADD14C,1.600000*%
%ADD15R,2.000000X1.905000*%
%ADD16O,2.000000X1.905000*%
%ADD17R,1.800000X1.800000*%
%ADD18C,1.800000*%
G04 APERTURE END LIST*
D10*
X103378000Y-40894000D03*
D11*
X121920000Y-66040000D03*
X121920000Y-63500000D03*
X121920000Y-60960000D03*
D12*
X106680000Y-38100000D03*
D11*
X121920000Y-58420000D03*
X106680000Y-40640000D03*
X121920000Y-55880000D03*
X106680000Y-43180000D03*
X121920000Y-53340000D03*
X106680000Y-45720000D03*
X121920000Y-50800000D03*
X106680000Y-48260000D03*
X121920000Y-48260000D03*
X106680000Y-50800000D03*
X121920000Y-45720000D03*
X106680000Y-53340000D03*
X121920000Y-43180000D03*
X106680000Y-55880000D03*
X121920000Y-40640000D03*
X106680000Y-58420000D03*
X121920000Y-38100000D03*
X106680000Y-60960000D03*
X106680000Y-63500000D03*
X106680000Y-66040000D03*
D13*
X118400000Y-70410000D03*
X118400000Y-76910000D03*
X122900000Y-70410000D03*
X122900000Y-76910000D03*
D14*
X125222000Y-56388000D03*
D11*
X125222000Y-46228000D03*
X117856000Y-54356000D03*
D14*
X117856000Y-64516000D03*
X114300000Y-64516000D03*
D11*
X114300000Y-54356000D03*
X110744000Y-54356000D03*
D14*
X110744000Y-64516000D03*
X103378000Y-56388000D03*
D11*
X103378000Y-46228000D03*
D15*
X107513000Y-71120000D03*
D16*
X107513000Y-73660000D03*
X107513000Y-76200000D03*
D17*
X125222000Y-38100000D03*
D18*
X125222000Y-40640000D03*
D17*
X119883000Y-81280000D03*
D18*
X122423000Y-81280000D03*
D17*
X112644000Y-83820000D03*
D18*
X115184000Y-83820000D03*
D17*
X105405000Y-81280000D03*
D18*
X107945000Y-81280000D03*
M02*
