M48
; DRILL file {KiCad (6.0.2)} date Sat Mar 19 10:13:46 2022
; FORMAT={-:-/ absolute / metric / decimal}
; #@! TF.CreationDate,2022-03-19T10:13:46-07:00
; #@! TF.GenerationSoftware,Kicad,Pcbnew,(6.0.2)
; #@! TF.FileFunction,Plated,1,2,PTH
FMAT,2
METRIC
; #@! TA.AperFunction,Plated,PTH,ComponentDrill
T1C0.800
; #@! TA.AperFunction,Plated,PTH,ComponentDrill
T2C0.900
; #@! TA.AperFunction,Plated,PTH,ComponentDrill
T3C1.000
; #@! TA.AperFunction,Plated,PTH,ComponentDrill
T4C1.100
%
G90
G05
T1
X103.378Y-46.228
X103.378Y-56.388
X106.68Y-38.1
X106.68Y-40.64
X106.68Y-43.18
X106.68Y-45.72
X106.68Y-48.26
X106.68Y-50.8
X106.68Y-53.34
X106.68Y-55.88
X106.68Y-58.42
X106.68Y-60.96
X106.68Y-63.5
X106.68Y-66.04
X110.744Y-54.356
X110.744Y-64.516
X114.3Y-54.356
X114.3Y-64.516
X117.856Y-54.356
X117.856Y-64.516
X121.92Y-38.1
X121.92Y-40.64
X121.92Y-43.18
X121.92Y-45.72
X121.92Y-48.26
X121.92Y-50.8
X121.92Y-53.34
X121.92Y-55.88
X121.92Y-58.42
X121.92Y-60.96
X121.92Y-63.5
X121.92Y-66.04
X125.222Y-46.228
X125.222Y-56.388
T2
X105.405Y-81.28
X107.945Y-81.28
X112.644Y-83.82
X115.184Y-83.82
X119.883Y-81.28
X122.423Y-81.28
X125.222Y-38.1
X125.222Y-40.64
T3
X103.378Y-40.894
T4
X107.513Y-71.12
X107.513Y-73.66
X107.513Y-76.2
X118.4Y-70.41
X118.4Y-76.91
X122.9Y-70.41
X122.9Y-76.91
T0
M30
